<svg width="48" height="48" viewBox="0 0 48 48" fill="none" xmlns="http://www.w3.org/2000/svg">
<g id="credit-operations">
<g id="shape">
<path d="M44.4142 16.5857L30.4142 2.58569L27.5858 5.41412L38.1717 16L4 16L4 20L38.1715 20L28.5858 29.5857L31.4142 32.4141L44.4142 19.4141C45.1953 18.6331 45.1953 17.3667 44.4142 16.5857Z" fill="#2B2D33"/>
<path d="M10 31C10 32.6569 8.65685 34 7 34C5.34315 34 4 32.6569 4 31C4 29.3431 5.34315 28 7 28C8.65685 28 10 29.3431 10 31Z" fill="#2B2D33"/>
<path d="M19 46C20.6569 46 22 44.6569 22 43C22 41.3431 20.6569 40 19 40C17.3431 40 16 41.3431 16 43C16 44.6569 17.3431 46 19 46Z" fill="#2B2D33"/>
<path d="M21.4142 31.4142L7.41421 45.4142L4.58578 42.5858L18.5858 28.5858L21.4142 31.4142Z" fill="#2B2D33"/>
</g>
</g>
</svg>
