<svg width="48" height="48" viewBox="0 0 48 48" fill="none" xmlns="http://www.w3.org/2000/svg">
<g id="gosuslugi-3">
<path id="shape" fill-rule="evenodd" clip-rule="evenodd" d="M22 2C22 0.89543 22.8954 0 24 0H30V4H26V8.10019C30.5698 8.55932 34.8658 10.5815 38.1421 13.8579C41.4185 17.1342 43.4407 21.4302 43.8998 26H48V30H46V38H48V42H0V38H2V30H0V26H4.10019C4.55932 21.4302 6.58153 17.1342 9.85787 13.8579C13.1342 10.5815 17.4302 8.55932 22 8.10019V2ZM36 30H42V38H36V30ZM32 30H26V38H32V30ZM16 30H22V38H16V30ZM12 30H6V38H12V30ZM39.8746 26C39.4329 22.494 37.839 19.2115 35.3137 16.6863C32.3131 13.6857 28.2435 12 24 12C19.7565 12 15.6869 13.6857 12.6863 16.6863C10.161 19.2115 8.56707 22.494 8.12543 26H39.8746Z" fill="#2B2D33"/>
</g>
</svg>
