<svg width="48" height="48" viewBox="0 0 48 48" fill="none" xmlns="http://www.w3.org/2000/svg">
<g id="home-services">
<g id="shape">
<path d="M20.6419 2.5318C21.4123 1.81924 22.6023 1.82322 23.3679 2.54093L39.3679 17.5409L36.6321 20.4591L21.9909 6.73289L8 19.6744V20H12V36H20V40H10C8.89543 40 8 39.1046 8 38V24H6C5.46957 24 4.96086 23.7893 4.58579 23.4142C4.21071 23.0391 4 22.5304 4 22L4 18.8C4 18.2425 4.23268 17.7104 4.64192 17.3318L20.6419 2.5318Z" fill="#2B2D33"/>
<path fill-rule="evenodd" clip-rule="evenodd" d="M22.5858 22.5858C23.0222 22.1494 23.6357 21.9389 24.2481 22.0155L40.2481 24.0155C41.0061 24.1102 41.6439 24.6284 41.8918 25.3509C42.1397 26.0735 41.9544 26.8741 41.4142 27.4142L38.8284 30L43.4142 34.5858C44.1953 35.3669 44.1953 36.6332 43.4142 37.4142L37.4142 43.4142C36.6332 44.1953 35.3669 44.1953 34.5858 43.4142L30 38.8284L27.4142 41.4142C26.8741 41.9544 26.0735 42.1397 25.3509 41.8918C24.6284 41.6439 24.1102 41.0061 24.0155 40.2481L22.0155 24.2481C21.9389 23.6357 22.1494 23.0222 22.5858 22.5858ZM26.3035 26.3035L27.4774 35.6942L28.5858 34.5858C29.3669 33.8048 30.6332 33.8048 31.4142 34.5858L36 39.1716L39.1716 36L34.5858 31.4142C33.8048 30.6332 33.8048 29.3669 34.5858 28.5858L35.6942 27.4774L26.3035 26.3035Z" fill="#2B2D33"/>
</g>
</g>
</svg>
