<svg width="48" height="48" viewBox="0 0 48 48" fill="none" xmlns="http://www.w3.org/2000/svg">
<g id="internet">
<g id="shape">
<path d="M10.396 10.3601C6.71859 11.9176 3.38013 14.1994 0.570068 17.0727L3.42983 19.8695C5.87264 17.3716 8.77025 15.3927 11.956 14.0433C15.1417 12.694 18.5545 12.0002 21.9999 12.0002C25.4454 12.0002 28.8582 12.694 32.0439 14.0433C35.2296 15.3927 38.1273 17.3716 40.5701 19.8695L43.4298 17.0727C40.6198 14.1993 37.2813 11.9176 33.6039 10.3601C29.9264 8.80247 25.9832 8.00018 21.9999 8.00018C18.0167 8.00018 14.0735 8.80248 10.396 10.3601Z" fill="#2B2D33"/>
<path d="M13.4886 17.9944C10.7916 19.1366 8.34401 20.8097 6.28435 22.9158L9.14411 25.7125C10.8365 23.982 12.8433 22.6117 15.0486 21.6776C17.2538 20.7436 19.6158 20.2635 21.9999 20.2635C24.3841 20.2635 26.7461 20.7436 28.9513 21.6776C31.1566 22.6117 33.1634 23.982 34.8558 25.7125L37.7155 22.9158C35.6559 20.8097 33.2083 19.1366 30.5113 17.9944C27.8143 16.852 24.922 16.2635 21.9999 16.2635C19.0779 16.2635 16.1856 16.852 13.4886 17.9944Z" fill="#2B2D33"/>
<path d="M16.5811 25.6286C14.8646 26.3557 13.3079 27.42 11.9986 28.7588L14.8584 31.5555C15.8004 30.5923 16.9163 29.8307 18.1411 29.3119C19.3659 28.7931 20.677 28.5268 21.9999 28.5268C23.3229 28.5268 24.634 28.7931 25.8588 29.3119C27.0836 29.8307 28.1995 30.5923 29.1415 31.5555L32.0013 28.7588C30.692 27.42 29.1353 26.3557 27.4188 25.6286C25.7022 24.9016 23.8607 24.5268 21.9999 24.5268C20.1392 24.5268 18.2977 24.9016 16.5811 25.6286Z" fill="#2B2D33"/>
<path d="M21.9999 40.0002C24.2091 40.0002 25.9999 38.2093 25.9999 36.0002C25.9999 33.791 24.2091 32.0002 21.9999 32.0002C19.7908 32.0002 17.9999 33.791 17.9999 36.0002C17.9999 38.2093 19.7908 40.0002 21.9999 40.0002Z" fill="#2B2D33"/>
</g>
</g>
</svg>
