<svg width="48" height="48" viewBox="0 0 48 48" fill="none" xmlns="http://www.w3.org/2000/svg">
<g id="mobile">
<g id="shape">
<path d="M24 36C25.1046 36 26 35.1046 26 34C26 32.8954 25.1046 32 24 32C22.8954 32 22 32.8954 22 34C22 35.1046 22.8954 36 24 36Z" fill="#2B2D33"/>
<path fill-rule="evenodd" clip-rule="evenodd" d="M14 4C11.7909 4 10 5.79086 10 8V40C10 42.2091 11.7909 44 14 44H34C36.2091 44 38 42.2091 38 40V8C38 5.79086 36.2091 4 34 4H14ZM14 8L34 8V40H14V8Z" fill="#2B2D33"/>
</g>
</g>
</svg>
