<svg width="24" height="24" viewBox="0 0 24 24" fill="none" xmlns="http://www.w3.org/2000/svg">
<g id="facebook">
<path id="shape" fill-rule="evenodd" clip-rule="evenodd" d="M14 4C11.7909 4 10 5.79086 10 8V10.5C10 11.0523 9.55228 11.5 9 11.5H7V13.5H9C9.55228 13.5 10 13.9477 10 14.5V20H12V14.5C12 13.9477 12.4477 13.5 13 13.5H15.2192L15.7192 11.5H13C12.4477 11.5 12 11.0523 12 10.5V8C12 6.89543 12.8954 6 14 6H16V4H14ZM8 8C8 4.68629 10.6863 2 14 2H17C17.5523 2 18 2.44772 18 3V7C18 7.55228 17.5523 8 17 8H14V9.5H17C17.3079 9.5 17.5987 9.64187 17.7882 9.88459C17.9777 10.1273 18.0448 10.4438 17.9701 10.7425L16.9701 14.7425C16.8589 15.1877 16.4589 15.5 16 15.5H14V21C14 21.5523 13.5523 22 13 22H9C8.44772 22 8 21.5523 8 21V15.5H6C5.44772 15.5 5 15.0523 5 14.5V10.5C5 9.94772 5.44772 9.5 6 9.5H8V8Z" fill="#AAABAD"/>
</g>
</svg>
