<svg width="24" height="24" viewBox="0 0 24 24" fill="none" xmlns="http://www.w3.org/2000/svg">
<g id="instagram">
<g id="shape">
<path fill-rule="evenodd" clip-rule="evenodd" d="M7 12C7 9.23858 9.23858 7 12 7C14.7614 7 17 9.23858 17 12C17 14.7614 14.7614 17 12 17C9.23858 17 7 14.7614 7 12ZM12 9C10.3431 9 9 10.3431 9 12C9 13.6569 10.3431 15 12 15C13.6569 15 15 13.6569 15 12C15 10.3431 13.6569 9 12 9Z" fill="#AAABAD"/>
<path d="M17 8C17.5523 8 18 7.55228 18 7C18 6.44772 17.5523 6 17 6C16.4477 6 16 6.44772 16 7C16 7.55228 16.4477 8 17 8Z" fill="#AAABAD"/>
<path fill-rule="evenodd" clip-rule="evenodd" d="M9.35719 2H14.6428C15.7266 1.99999 16.6007 1.99998 17.3086 2.05782C18.0375 2.11737 18.6777 2.24318 19.27 2.54497C20.2108 3.02433 20.9757 3.78924 21.455 4.73005C21.7568 5.32234 21.8826 5.96253 21.9422 6.69138C22 7.39923 22 8.27334 22 9.35707V14.6428C22 15.7266 22 16.6008 21.9422 17.3086C21.8826 18.0375 21.7568 18.6777 21.455 19.27C20.9757 20.2108 20.2108 20.9757 19.27 21.455C18.6777 21.7568 18.0375 21.8826 17.3086 21.9422C16.6008 22 15.7267 22 14.6429 22H9.35717C8.27344 22 7.39923 22 6.69138 21.9422C5.96253 21.8826 5.32234 21.7568 4.73005 21.455C3.78924 20.9757 3.02433 20.2108 2.54497 19.27C2.24318 18.6777 2.11737 18.0375 2.05782 17.3086C1.99998 16.6007 1.99999 15.7266 2 14.6428V9.35719C1.99999 8.27341 1.99998 7.39926 2.05782 6.69138C2.11737 5.96253 2.24318 5.32234 2.54497 4.73005C3.02433 3.78924 3.78924 3.02433 4.73005 2.54497C5.32234 2.24318 5.96253 2.11737 6.69138 2.05782C7.39926 1.99998 8.27341 1.99999 9.35719 2ZM6.85424 4.05118C6.24907 4.10062 5.90138 4.19279 5.63803 4.32698C5.07354 4.6146 4.6146 5.07354 4.32698 5.63803C4.19279 5.90138 4.10062 6.24907 4.05118 6.85424C4.00078 7.47108 4 8.26339 4 9.4V14.6C4 15.7366 4.00078 16.5289 4.05118 17.1458C4.10062 17.7509 4.19279 18.0986 4.32698 18.362C4.6146 18.9265 5.07354 19.3854 5.63803 19.673C5.90138 19.8072 6.24907 19.8994 6.85424 19.9488C7.47108 19.9992 8.26339 20 9.4 20H14.6C15.7366 20 16.5289 19.9992 17.1458 19.9488C17.7509 19.8994 18.0986 19.8072 18.362 19.673C18.9265 19.3854 19.3854 18.9265 19.673 18.362C19.8072 18.0986 19.8994 17.7509 19.9488 17.1458C19.9992 16.5289 20 15.7366 20 14.6V9.4C20 8.2634 19.9992 7.47108 19.9488 6.85424C19.8994 6.24907 19.8072 5.90138 19.673 5.63803C19.3854 5.07354 18.9265 4.6146 18.362 4.32698C18.0986 4.19279 17.7509 4.10062 17.1458 4.05118C16.5289 4.00078 15.7366 4 14.6 4H9.4C8.2634 4 7.47108 4.00078 6.85424 4.05118Z" fill="#AAABAD"/>
</g>
</g>
</svg>
