<svg width="28" height="28" viewBox="0 0 28 28" fill="none" xmlns="http://www.w3.org/2000/svg">
<path id="Vector" fill-rule="evenodd" clip-rule="evenodd" d="M17.4118 0.406669C16.5047 0.179233 15.5628 0.0406857 14.5956 0H13.4095C10.8229 0.108253 8.41756 0.919755 6.37789 2.24943H15.5208C16.8757 2.24943 17.9841 1.7433 17.9841 1.1247C17.9841 0.852192 17.7685 0.601884 17.4118 0.406669ZM25.4459 5.92827C24.8672 5.10935 24.2034 4.35499 23.4674 3.67859H5.43344C4.56048 3.67859 3.10417 3.86733 3.035 4.95507C2.99996 5.50701 4.37371 5.92827 5.43344 5.92827H25.4459ZM27.172 9.22221C26.9516 8.6177 26.6901 8.03319 26.3927 7.47057C26.068 7.39839 25.7049 7.3572 25.321 7.3572H1.67167C1.28522 8.07201 0.959884 8.82429 0.700006 9.60685H25.321C26.057 9.60685 26.7198 9.45792 27.172 9.22221ZM28 13.2853C27.9589 12.5173 27.8557 11.7664 27.6966 11.0358H2.79178C1.43691 11.0358 0.328544 11.542 0.328544 12.1606C0.328544 12.7792 1.43691 13.2853 2.79178 13.2853L28 13.2853ZM0 14.7145C0.0357355 15.482 0.132549 16.2334 0.285881 16.9642H24.7245C26.0791 16.9642 27.1875 16.458 27.1875 15.8394C27.1875 15.2206 26.0791 14.7145 24.7245 14.7145H0ZM26.0099 20.6428C26.389 19.9273 26.7081 19.1754 26.9613 18.3931H3.18121C1.82638 18.3931 0.718012 18.8993 0.718012 19.5178L0.719397 19.55C0.77289 19.6758 0.828716 19.801 0.885641 19.925C1.24416 20.3446 2.13972 20.6428 3.18121 20.6428L26.0099 20.6428ZM24.0157 23.8918C24.19 23.7132 24.3595 23.5302 24.5243 23.3426C24.5379 23.2948 24.5457 23.2457 24.5457 23.1964C24.5457 22.5778 23.4374 22.0717 22.0825 22.0717H2.48763C3.05436 22.889 3.70481 23.6431 4.42724 24.3214H22.0825C22.8644 24.3214 23.5637 24.1532 24.0157 23.8918ZM15.8102 28C18 27.7169 20.0311 26.9264 21.7839 25.7503H12.4595C11.1047 25.7503 9.99628 26.2565 9.99628 26.875C9.99628 27.2672 10.4418 27.6144 11.1125 27.8159C11.4448 27.8857 11.7821 27.9438 12.1224 27.9898C12.2329 27.9968 12.3449 28 12.4595 28H15.8102Z" fill="#183884"/>
</svg>
