<svg width="56" height="56" viewBox="0 0 56 56" fill="none" xmlns="http://www.w3.org/2000/svg">
<g id="Group 2973">
<path id="Ellipse 51" d="M56 28C56 31.677 55.2758 35.318 53.8686 38.7151C52.4615 42.1123 50.399 45.199 47.799 47.799C45.1989 50.399 42.1123 52.4615 38.7151 53.8686C35.318 55.2758 31.677 56 28 56L28 49C30.7578 49 33.4885 48.4568 36.0364 47.4015C38.5842 46.3461 40.8992 44.7993 42.8492 42.8492C44.7993 40.8992 46.3461 38.5842 47.4015 36.0364C48.4568 33.4885 49 30.7578 49 28H56Z" fill="#57B6ED"/>
<path id="Ellipse 55" d="M56 28C56 33.5379 54.3578 38.9514 51.2812 43.556C48.2045 48.1605 43.8315 51.7494 38.7151 53.8686C33.5988 55.9879 27.9689 56.5424 22.5375 55.462C17.106 54.3816 12.1169 51.7149 8.20101 47.799C4.28514 43.8831 1.6184 38.894 0.538012 33.4625C-0.542374 28.0311 0.0121194 22.4012 2.13137 17.2849C4.25063 12.1685 7.83946 7.79553 12.444 4.71885C17.0486 1.64217 22.4621 -6.60385e-08 28 0V7C23.8466 7 19.7865 8.23163 16.333 10.5391C12.8796 12.8466 10.188 16.1264 8.59853 19.9636C7.00909 23.8009 6.59322 28.0233 7.40351 32.0969C8.2138 36.1705 10.2139 39.9123 13.1508 42.8492C16.0877 45.7861 19.8295 47.7862 23.9031 48.5965C27.9767 49.4068 32.1991 48.9909 36.0364 47.4015C39.8736 45.812 43.1534 43.1204 45.4609 39.667C47.7684 36.2135 49 32.1534 49 28H56Z" fill="#E8BC4D"/>
<path id="Ellipse 53" d="M56 28C56 35.1462 53.2676 42.022 48.3625 47.2189C43.4575 52.4159 36.7509 55.5407 29.6167 55.9533C22.4824 56.3659 15.4603 54.0351 9.98885 49.4382C4.51735 44.8414 1.01053 38.3265 0.186688 31.228L7.14002 30.421C7.7579 35.7449 10.388 40.6311 14.4916 44.0787C18.5953 47.5263 23.8618 49.2744 29.2125 48.965C34.5632 48.6555 39.5931 46.3119 43.2719 42.4142C46.9507 38.5165 49 33.3596 49 28H56Z" fill="#57AEED"/>
<path id="Ellipse 54" d="M56 28C56 31.677 55.2758 35.318 53.8686 38.7151C52.4615 42.1123 50.399 45.199 47.799 47.799C45.1989 50.399 42.1123 52.4615 38.7151 53.8686C35.318 55.2758 31.677 56 28 56L28 49C30.7578 49 33.4885 48.4568 36.0364 47.4015C38.5842 46.3461 40.8992 44.7993 42.8492 42.8492C44.7993 40.8992 46.3461 38.5842 47.4015 36.0364C48.4568 33.4885 49 30.7578 49 28H56Z" fill="#5781ED"/>
<path id="Ellipse 56" d="M28 0C31.677 4.38479e-08 35.318 0.724242 38.7151 2.13137C42.1123 3.53851 45.199 5.60097 47.799 8.20101C50.399 10.8011 52.4615 13.8878 53.8686 17.2849C55.2758 20.682 56 24.323 56 28L49 28C49 25.2422 48.4568 22.5115 47.4015 19.9636C46.3461 17.4158 44.7993 15.1008 42.8492 13.1508C40.8992 11.2007 38.5842 9.65388 36.0364 8.59853C33.4885 7.54318 30.7578 7 28 7V0Z" fill="#E77C6E"/>
</g>
</svg>
