<svg width="48" height="48" viewBox="0 0 48 48" fill="none" xmlns="http://www.w3.org/2000/svg">
<rect x="0.401367" width="48" height="48" rx="24" fill="#F4F4F4"/>
<path fill-rule="evenodd" clip-rule="evenodd" d="M18.4014 26H16.4014V31.5858L14.1085 29.293L12.6943 30.7072L16.6943 34.7072C17.0849 35.0977 17.718 35.0977 18.1085 34.7072L22.1085 30.7072L20.6943 29.293L18.4014 31.5859V26Z" fill="#AAABAD"/>
<path fill-rule="evenodd" clip-rule="evenodd" d="M17.4014 15C15.7445 15 14.4014 16.3431 14.4014 18V24H16.4014V21L32.4014 21L32.4014 28C32.4014 28.5523 31.9537 29 31.4014 29H24.4014V31H31.4014C33.0582 31 34.4014 29.6569 34.4014 28L34.4014 18C34.4014 16.3431 33.0582 15 31.4014 15H17.4014ZM32.4014 19L16.4014 19L16.4014 18C16.4014 17.4477 16.8491 17 17.4014 17L31.4014 17C31.9537 17 32.4014 17.4477 32.4014 18V19Z" fill="#AAABAD"/>
</svg>
