<svg width="46" height="46" viewBox="0 0 46 46" fill="none" xmlns="http://www.w3.org/2000/svg">
<g id="Frame" clip-path="url(#clip0_1213_6693)">
<path id="Vector" fill-rule="evenodd" clip-rule="evenodd" d="M0.199951 28.1331C2.44867 27.489 4.09772 25.428 4.09772 22.9999C4.09772 20.5717 2.44867 18.5172 0.199951 17.8666C1.77079 19.0453 2.7876 20.9066 2.7876 22.9999C2.7876 25.0931 1.77079 26.9544 0.199951 28.1331ZM2.11625 30.8511C6.50287 30.8511 10.0617 27.3344 10.0617 22.9934C10.0617 18.6588 6.50287 15.1422 2.11625 15.1422C1.78383 15.1422 1.45793 15.1616 1.13854 15.2002C5.06891 15.6768 8.11282 18.9809 8.11282 22.987C8.11282 26.9995 5.06891 30.31 1.13854 30.7866C1.46445 30.8382 1.78383 30.8511 2.11625 30.8511ZM4.90596 35.3982C11.8346 35.3982 17.4531 29.8463 17.4531 22.9999C17.4531 16.1599 11.8346 10.6016 4.90596 10.6016C4.38451 10.6016 3.86959 10.6338 3.3677 10.6982C9.57285 11.4453 14.3766 16.6687 14.3766 22.9999C14.3766 29.3311 9.57285 34.5544 3.3677 35.308C3.86959 35.3595 4.38451 35.3982 4.90596 35.3982Z" fill="#409DD3"/>
<path id="Vector_2" fill-rule="evenodd" clip-rule="evenodd" d="M22.7329 45.8C35.4756 45.8 45.8001 35.585 45.8001 22.9935C45.8066 10.4084 35.469 0.199951 22.7329 0.199951C21.7682 0.199951 20.8231 0.257917 19.8975 0.373849C31.304 1.7586 40.1425 11.3616 40.1425 23C40.1425 34.6447 31.304 44.2542 19.8975 45.6325C20.8231 45.742 21.7682 45.8 22.7329 45.8ZM8.92771 39.6749C18.2419 39.6749 25.7963 32.2101 25.7963 23C25.7963 13.7962 18.2419 6.33148 8.92771 6.33148C8.23028 6.33148 7.53937 6.37012 6.85498 6.46029C15.198 7.47148 21.6574 14.4918 21.6574 23C21.6574 31.5145 15.198 38.5349 6.85498 39.5461C7.53285 39.6233 8.23028 39.6749 8.92771 39.6749ZM14.5788 43.3783C25.9658 43.3783 35.2018 34.2583 35.2018 23C35.2018 11.7481 25.9723 2.62809 14.5788 2.62809C13.7184 2.62809 12.8776 2.68605 12.0498 2.78266C22.244 4.01283 30.1373 12.5918 30.1373 23C30.1373 33.4016 22.244 41.9935 12.0498 43.2237C12.8776 43.3267 13.7184 43.3783 14.5788 43.3783Z" fill="#409DD3"/>
</g>
<defs>
<clipPath id="clip0_1213_6693">
<rect width="45.6" height="45.6" fill="white" transform="translate(0.199951 0.199951)"/>
</clipPath>
</defs>
</svg>
