<svg width="48" height="48" viewBox="0 0 48 48" fill="none" xmlns="http://www.w3.org/2000/svg">
<rect width="48" height="48" rx="24" fill="white"/>
<path fill-rule="evenodd" clip-rule="evenodd" d="M18 26H16V31.5858L13.7072 29.293L12.293 30.7072L16.293 34.7072C16.6835 35.0977 17.3167 35.0977 17.7072 34.7072L21.7072 30.7072L20.293 29.293L18 31.5859V26Z" fill="#2B2D33"/>
<path fill-rule="evenodd" clip-rule="evenodd" d="M17 15C15.3431 15 14 16.3431 14 18V24H16V21L32 21L32 28C32 28.5523 31.5523 29 31 29H24V31H31C32.6569 31 34 29.6569 34 28L34 18C34 16.3431 32.6569 15 31 15H17ZM32 19L16 19L16 18C16 17.4477 16.4477 17 17 17L31 17C31.5523 17 32 17.4477 32 18V19Z" fill="#2B2D33"/>
</svg>
