<svg width="25" height="24" viewBox="0 0 25 24" fill="none" xmlns="http://www.w3.org/2000/svg">
<g id="more-hor">
<path id="shape" d="M14.4004 4C14.4004 5.10457 13.505 6 12.4004 6C11.2958 6 10.4004 5.10457 10.4004 4C10.4004 2.89543 11.2958 2 12.4004 2C13.505 2 14.4004 2.89543 14.4004 4ZM14.4004 20C14.4004 21.1046 13.505 22 12.4004 22C11.2958 22 10.4004 21.1046 10.4004 20C10.4004 18.8954 11.2958 18 12.4004 18C13.505 18 14.4004 18.8954 14.4004 20ZM14.4004 12C14.4004 13.1046 13.505 14 12.4004 14C11.2958 14 10.4004 13.1046 10.4004 12C10.4004 10.8954 11.2958 10 12.4004 10C13.505 10 14.4004 10.8954 14.4004 12Z" fill="#808185"/>
</g>
</svg>
