<svg width="49" height="48" viewBox="0 0 49 48" fill="none" xmlns="http://www.w3.org/2000/svg">
<g clip-path="url(#clip0_1213_6775)">
<rect x="0.400391" width="48" height="48" rx="24" fill="#E41F26"/>
<path d="M30.6431 22.7134H29.0242V27.9542H30.6431V22.7134Z" fill="white"/>
<path fill-rule="evenodd" clip-rule="evenodd" d="M5.20044 22.7135H6.75102L6.80706 23.2945C6.97209 23.0934 7.18242 22.9254 7.43727 22.7913C7.69212 22.6573 7.99072 22.5902 8.33614 22.5902C8.5457 22.5902 8.733 22.6118 8.89804 22.6573C9.06231 22.7019 9.20738 22.7597 9.33097 22.8306C9.45456 22.9015 9.56279 22.9801 9.65644 23.0657C9.75009 23.1512 9.82685 23.2352 9.88672 23.3169C10.1047 23.0865 10.368 22.9077 10.6789 22.7805C10.9898 22.6542 11.3137 22.591 11.6507 22.591C12.3254 22.591 12.8405 22.7805 13.1959 23.1605C13.5513 23.5404 13.7294 24.0582 13.7294 24.714V27.9544H12.1113V24.9706C12.1113 24.6577 12.0414 24.4158 11.9032 24.2447C11.7651 24.0728 11.5563 23.9873 11.2799 23.9873C10.9652 23.9873 10.7142 24.096 10.5269 24.3117C10.3396 24.5283 10.2467 24.8034 10.2467 25.1386V27.9544H8.68464V24.9706C8.68464 24.6577 8.61556 24.4158 8.47662 24.2447C8.33768 24.0728 8.12966 23.9873 7.85255 23.9873C7.5455 23.9873 7.29603 24.096 7.10489 24.3117C6.91375 24.5283 6.81857 24.8034 6.81857 25.1386V27.9544H5.20044V22.7135Z" fill="white"/>
<path fill-rule="evenodd" clip-rule="evenodd" d="M17.9553 26.7366C18.1571 26.7366 18.3375 26.6973 18.4949 26.6195C18.6523 26.5409 18.7851 26.4346 18.8941 26.3012C19.0023 26.1672 19.0829 26.0161 19.1351 25.8489C19.1873 25.6809 19.2134 25.5083 19.2134 25.3295C19.2134 25.1507 19.1873 24.9774 19.1351 24.8101C19.0829 24.6429 19.0023 24.4934 18.8941 24.3632C18.7851 24.233 18.6523 24.1282 18.4949 24.0503C18.3383 23.9725 18.1579 23.9332 17.9553 23.9332C17.7534 23.9332 17.5715 23.9717 17.4103 24.0503C17.2491 24.1282 17.1163 24.233 17.0111 24.3632C16.9059 24.4934 16.8261 24.6429 16.7701 24.8101C16.7133 24.9774 16.6856 25.1507 16.6856 25.3295C16.6856 25.5083 16.7133 25.6809 16.7701 25.8489C16.8261 26.0161 16.9067 26.1672 17.0111 26.3012C17.1163 26.4353 17.2491 26.5417 17.4103 26.6195C17.5715 26.6973 17.7534 26.7366 17.9553 26.7366ZM15.1235 25.3288C15.1235 24.9411 15.1926 24.5782 15.3308 24.2391C15.469 23.9008 15.6624 23.6041 15.9096 23.3506C16.1567 23.0979 16.4546 22.8983 16.8031 22.7526C17.1516 22.6078 17.5346 22.5345 17.9545 22.5345C18.3744 22.5345 18.7559 22.607 19.1013 22.7526C19.4452 22.8975 19.7415 23.0971 19.9887 23.3506C20.2358 23.6041 20.4285 23.9001 20.5674 24.2391C20.7056 24.5782 20.7755 24.9411 20.7755 25.3288C20.7755 25.7164 20.7056 26.0793 20.5674 26.4184C20.4293 26.7574 20.2358 27.0541 19.9887 27.3069C19.7415 27.5604 19.4452 27.7615 19.1013 27.9103C18.7559 28.059 18.3744 28.1345 17.9545 28.1345C17.5346 28.1345 17.1508 28.0598 16.8031 27.9103C16.4546 27.7615 16.1567 27.5604 15.9096 27.3069C15.6624 27.0541 15.4697 26.7574 15.3308 26.4184C15.1926 26.0793 15.1235 25.7156 15.1235 25.3288Z" fill="white"/>
<path fill-rule="evenodd" clip-rule="evenodd" d="M23.8213 26.5787C23.9111 26.6157 24.0101 26.6442 24.1191 26.6627C24.2281 26.6812 24.3793 26.6904 24.5743 26.6904C25.0011 26.6904 25.3335 26.5525 25.5692 26.2766C25.8048 26.0015 25.923 25.6401 25.923 25.1932C25.923 25.029 25.9023 24.8687 25.8608 24.7123C25.8194 24.5559 25.758 24.4164 25.6758 24.2931C25.5929 24.1698 25.4862 24.0696 25.3558 23.991C25.2245 23.9124 25.0648 23.8739 24.8775 23.8739C24.5183 23.8739 24.2519 23.9725 24.0792 24.1698C23.9073 24.3671 23.8205 24.6299 23.8205 24.9574V26.5787H23.8213ZM22.2032 20.4H23.8213V23.0031C23.971 22.8467 24.1752 22.7242 24.4338 22.634C24.6925 22.5446 24.9489 22.4999 25.203 22.4999C25.5776 22.4999 25.9115 22.5708 26.2032 22.7118C26.4957 22.8536 26.7405 23.0455 26.9393 23.2875C27.1374 23.5294 27.2894 23.8084 27.3945 24.1251C27.4997 24.4411 27.5519 24.7786 27.5519 25.1361C27.5519 25.5607 27.4828 25.9514 27.3439 26.3098C27.2049 26.6666 27.0046 26.9725 26.7428 27.226C26.4803 27.4788 26.1579 27.6768 25.7756 27.8178C25.3941 27.9596 24.9589 28.0298 24.4722 28.0298C24.0224 28.0298 23.5979 27.9889 23.1965 27.9072C22.7958 27.8255 22.4649 27.7392 22.2024 27.6498V20.4H22.2032Z" fill="white"/>
<path fill-rule="evenodd" clip-rule="evenodd" d="M32.3171 22.7134H33.9353V25.7303C33.9353 26.0278 34.0082 26.2628 34.154 26.4339C34.2999 26.6057 34.5156 26.6913 34.8004 26.6913C34.9654 26.6913 35.1112 26.6597 35.2387 26.5957C35.3661 26.5325 35.4743 26.4485 35.5641 26.3445C35.6547 26.2405 35.7223 26.1172 35.7668 25.9754C35.8113 25.8344 35.8343 25.6895 35.8343 25.54V22.7126H37.4417V27.9535H35.8904L35.8458 27.3941C35.6739 27.5952 35.4467 27.7616 35.1657 27.8911C34.8848 28.0221 34.5908 28.0868 34.2838 28.0868C33.6773 28.0868 33.1968 27.908 32.8453 27.5505C32.4929 27.1929 32.3171 26.6635 32.3171 25.9638V22.7134Z" fill="white"/>
<path fill-rule="evenodd" clip-rule="evenodd" d="M38.9587 26.87L41.5433 24.0095H39.0716V22.7134H43.589V23.82L40.9929 26.6912H43.6005V27.9542H38.9587V26.87Z" fill="white"/>
<path fill-rule="evenodd" clip-rule="evenodd" d="M29.785 21.878L28.9575 20.4717H30.6125L29.785 21.878Z" fill="white"/>
</g>
<defs>
<clipPath id="clip0_1213_6775">
<rect width="48" height="48" fill="white" transform="translate(0.400391)"/>
</clipPath>
</defs>
</svg>
