<svg width="48" height="32" viewBox="0 0 48 32" fill="none" xmlns="http://www.w3.org/2000/svg">
<g id="bg-2" clip-path="url(#clip0_1213_6450)">
<rect id="CARD" width="48" height="32" rx="4" fill="#FF6438"/>
<g id="Mask Group">
<mask id="mask0_1213_6450" style="mask-type:alpha" maskUnits="userSpaceOnUse" x="0" y="0" width="48" height="33">
<rect id="CARD_2" y="0.000152588" width="48" height="32" rx="4" fill="#5645FF"/>
</mask>
<g mask="url(#mask0_1213_6450)">
<g id="Group 2909">
<path id="SHAPE" d="M41.7255 12.6533C41.7255 12.6533 47.077 8.37363 49.2323 5.23475L49.3824 -0.626068L31.0661 -0.551947L24.6855 0.0413114L31.0443 6.73775C31.0443 6.73775 38.5729 4.38157 41.7255 12.6533Z" fill="#E91E2F"/>
<path id="SHAPE_2" d="M5.55469 4.92996C5.55469 4.92996 15.3353 7.62371 19.4419 11.1616L26.8735 5.82023L26.4264 -0.691395L14.9485 -2.64645C14.9485 -2.64645 5.70499 4.63347 5.55469 4.92996Z" fill="#8B1830"/>
<path id="SHAPE_3" d="M18.8408 10.6483C18.8408 10.6483 18.6424 2.99474 26.3607 -0.169708C26.3607 -0.169708 31.473 3.0924 35.2 13.7765L23.1944 16.3181L18.8408 10.6483Z" fill="#FFAB09"/>
<path id="SHAPE_4" d="M6.42138 6.08482C6.42138 6.08482 19.0088 4.03002 24.5795 19.2503C24.5795 19.2503 22.4686 25.6222 22.4686 32.0886C22.4686 32.5345 22.9303 33.1313 22.9303 33.1313C22.9303 33.1313 20.7807 37.5644 27.4399 40.6553V43.326H18.5822C18.5822 43.326 9.59602 40.0496 11.3758 25.5215C13.1556 10.9934 5.42987 8.92878 4.99512 8.75557C4.99518 8.7555 6.3276 6.08482 6.42138 6.08482Z" fill="#FF6333"/>
<path id="SHAPE_5" d="M26.3661 13.4091C31.2044 10.861 37.7037 13.5714 40.8828 19.4631C44.0618 25.3548 42.7167 32.1966 37.8783 34.7447C33.0399 37.2928 30.9762 36.1818 26.8223 30.9156C19.5536 21.7003 21.5277 15.9572 26.3661 13.4091Z" fill="#E91F2E"/>
<path id="SHAPE_6" d="M84.1086 -1.38886C79.786 2.74545 72.3588 2.98706 69.0634 8.36394C60.6253 22.141 81.2711 31.786 82.2219 44.4963C83.1879 57.4174 72.2039 62.908 62.4814 63.8661C54.6332 64.6394 47.1856 61.2048 41.9298 55.623C32.1172 45.2027 22.933 31.5647 24.9646 16.5949C26.6851 3.9107 37.2807 -1.38679 48.8423 -4.04788C53.3196 -5.07857 58.3212 -5.00287 62.9071 -4.83265C67.2297 -4.66967 71.8957 -6.35164 76.1869 -6.86699C78.5797 -7.15384 87.0055 -9.2896 86.0569 -4.72333C85.7807 -3.3962 85.0712 -2.3088 84.1086 -1.38886Z" fill="#282640"/>
</g>
<path id="SHAPE_7" d="M31.347 -7.01891C26.9674 -3.74038 19.631 -4.28325 16.0746 0.302194C6.73997 12.3444 27.2801 23.669 27.7352 36.3224C28.2091 49.5208 16.4163 54.488 5.75542 54.7426C-2.85414 54.9481 -10.7154 50.6745 -15.9392 44.3214C-25.7157 32.4319 -33.9128 17.7933 -30.0034 3.52356C-26.7595 -8.32009 -15.1888 -11.9798 -3.38899 -13.1272C1.1763 -13.5713 6.1576 -12.9662 10.6977 -12.3238C14.9591 -11.7188 19.6304 -12.7224 23.8456 -12.7247C26.1857 -12.7257 34.4028 -13.7179 33.3471 -9.78843C33.0375 -8.63798 32.3138 -7.74183 31.347 -7.01891Z" fill="#CBD0DB"/>
</g>
</g>
</g>
<defs>
<clipPath id="clip0_1213_6450">
<rect width="48" height="32" fill="white"/>
</clipPath>
</defs>
</svg>
