<svg width="48" height="32" viewBox="0 0 48 32" fill="none" xmlns="http://www.w3.org/2000/svg">
<g id="bg-4" clip-path="url(#clip0_1213_6472)">
<rect id="CARD" width="48" height="32" rx="4" fill="#78DF89"/>
<g id="Mask Group">
<mask id="mask0_1213_6472" style="mask-type:alpha" maskUnits="userSpaceOnUse" x="0" y="0" width="48" height="33">
<rect id="CARD_2" y="0.000152588" width="48" height="32" rx="4" fill="#5645FF"/>
</mask>
<g mask="url(#mask0_1213_6472)">
<g id="Group 2917">
<path id="SHAPE" d="M4.71613 30.1914C4.44428 30.1536 4.19791 30.0129 4.02891 29.799C3.85992 29.5852 3.78151 29.3148 3.81019 29.0449C3.83887 28.7751 3.97242 28.5267 4.18268 28.3522C4.39295 28.1777 4.66352 28.0908 4.93739 28.1096C5.21126 28.1284 5.46704 28.2516 5.65085 28.4532C5.83465 28.6548 5.93212 28.919 5.92273 29.1902C5.91334 29.4614 5.79781 29.7184 5.60049 29.9071C5.40317 30.0958 5.13947 30.2014 4.86494 30.2017C4.81516 30.2017 4.76543 30.1982 4.71613 30.1914ZM4.46796 28.638C4.3468 28.7283 4.26106 28.8573 4.22534 29.003C4.18963 29.1488 4.20615 29.3022 4.2721 29.4373C4.33805 29.5723 4.44935 29.6806 4.58701 29.7436C4.72467 29.8066 4.88018 29.8205 5.02703 29.7828C5.17387 29.7452 5.30296 29.6584 5.3923 29.5372C5.48163 29.416 5.52568 29.2679 5.51693 29.1182C5.50817 28.9685 5.44716 28.8264 5.3443 28.7162C5.24143 28.606 5.10308 28.5344 4.95282 28.5138C4.92246 28.5096 4.89184 28.5075 4.86119 28.5075C4.71922 28.5075 4.58114 28.5534 4.46796 28.6381V28.638ZM40.4494 28.0379C40.393 28.0301 40.3393 28.0086 40.2933 27.9754C40.2473 27.9422 40.2102 27.8983 40.1854 27.8476C40.1607 27.7969 40.1489 27.7409 40.1512 27.6847C40.1536 27.6284 40.1699 27.5735 40.1988 27.525C40.2277 27.4764 40.2682 27.4357 40.3168 27.4063C40.3655 27.377 40.4207 27.3599 40.4776 27.3566C40.5344 27.3534 40.5913 27.3641 40.643 27.3877C40.6947 27.4114 40.7397 27.4473 40.7741 27.4922C40.8128 27.543 40.8365 27.6036 40.8425 27.667C40.8484 27.7304 40.8363 27.7941 40.8076 27.8511C40.7789 27.9081 40.7347 27.9561 40.68 27.9897C40.6253 28.0232 40.5621 28.041 40.4977 28.0411C40.4816 28.0411 40.4655 28.04 40.4496 28.0379H40.4494ZM24.2481 27.4669C24.1246 27.45 24.0125 27.3864 23.9355 27.2894C23.8585 27.1924 23.8226 27.0697 23.8353 26.9471C23.848 26.8245 23.9084 26.7115 24.0038 26.632C24.0991 26.5526 24.2219 26.5128 24.3464 26.521C24.4708 26.5293 24.5871 26.585 24.6708 26.6764C24.7545 26.7678 24.7991 26.8877 24.7951 27.0109C24.7911 27.1341 24.7389 27.251 24.6494 27.3369C24.56 27.4228 24.4403 27.471 24.3156 27.4714C24.2931 27.4713 24.2706 27.4699 24.2483 27.467L24.2481 27.4669ZM46.9132 26.2878C46.7898 26.271 46.6779 26.2074 46.6011 26.1106C46.5242 26.0137 46.4883 25.8912 46.5011 25.7687C46.5138 25.6463 46.5742 25.5335 46.6694 25.4542C46.7646 25.3749 46.8873 25.3352 47.0115 25.3435C47.1358 25.3518 47.2519 25.4075 47.3354 25.4988C47.4189 25.5901 47.4633 25.7099 47.4593 25.8329C47.4552 25.9559 47.4029 26.0726 47.3135 26.1583C47.2241 26.244 47.1046 26.2921 46.9801 26.2923C46.9578 26.2924 46.9355 26.2909 46.9134 26.288L46.9132 26.2878ZM14.0165 26.2148C13.964 26.2075 13.9148 26.185 13.8752 26.1501C13.8356 26.1152 13.8074 26.0695 13.7941 26.0187C13.7808 25.968 13.7831 25.9145 13.8007 25.865C13.8182 25.8155 13.8502 25.7723 13.8927 25.7408L17.5897 22.9908C17.6178 22.9692 17.6499 22.9534 17.6842 22.9443C17.7185 22.9351 17.7543 22.9327 17.7896 22.9374C17.8248 22.942 17.8587 22.9535 17.8894 22.9712C17.9201 22.989 17.9469 23.0126 17.9683 23.0406C17.9897 23.0687 18.0052 23.1007 18.014 23.1347C18.0228 23.1688 18.0246 23.2042 18.0194 23.239C18.0142 23.2737 18.002 23.3071 17.9837 23.3372C17.9653 23.3673 17.941 23.3934 17.9123 23.4141L14.2156 26.1642C14.1693 26.1988 14.1128 26.2175 14.0547 26.2175C14.042 26.2176 14.0293 26.2167 14.0167 26.2149L14.0165 26.2148ZM46.7998 18.8964C46.7109 18.8841 46.6303 18.8381 46.575 18.7682C46.5197 18.6983 46.494 18.61 46.5033 18.5217C46.5126 18.4334 46.5562 18.3522 46.6249 18.2951C46.6936 18.238 46.7821 18.2095 46.8717 18.2156C46.9612 18.2217 47.0449 18.2619 47.105 18.3277C47.1652 18.3936 47.1972 18.48 47.1942 18.5687C47.1912 18.6573 47.1535 18.7414 47.089 18.8032C47.0245 18.8649 46.9383 18.8995 46.8486 18.8997C46.8323 18.8996 46.8161 18.8986 46.8001 18.8965L46.7998 18.8964ZM32.2101 14.5096C32.0136 14.3632 31.8745 14.1539 31.8166 13.9175C31.7587 13.681 31.7856 13.4321 31.8926 13.213C31.9996 12.9939 32.1802 12.8183 32.4035 12.7162C32.6268 12.614 32.8791 12.5915 33.1173 12.6526C33.3555 12.7137 33.5649 12.8546 33.7098 13.0512C33.8547 13.2479 33.9262 13.4881 33.9119 13.7309C33.8977 13.9738 33.7987 14.2043 33.6318 14.383C33.4649 14.5618 33.2405 14.6778 32.9967 14.7114C32.9474 14.7182 32.8977 14.7216 32.8479 14.7216C32.6176 14.7217 32.3936 14.6473 32.2101 14.5098V14.5096ZM32.7601 13.0338C32.5921 13.057 32.4398 13.1438 32.3353 13.2758C32.2307 13.4078 32.1822 13.5748 32.1997 13.7415C32.2173 13.9083 32.2997 14.0618 32.4295 14.1697C32.5593 14.2776 32.7264 14.3315 32.8956 14.32C33.0648 14.3085 33.2229 14.2325 33.3366 14.108C33.4502 13.9836 33.5105 13.8204 33.5049 13.6529C33.4992 13.4853 33.4279 13.3265 33.3061 13.2098C33.1843 13.0932 33.0214 13.0278 32.8518 13.0275C32.8211 13.0276 32.7905 13.0297 32.7601 13.0339L32.7601 13.0338ZM2.38286 14.1592C2.22479 14.1589 2.07323 14.097 1.96103 13.9869C1.84883 13.8768 1.78504 13.7275 1.78348 13.5712C1.78191 13.415 1.84271 13.2644 1.95268 13.1522C2.06265 13.0399 2.21295 12.9751 2.37098 12.9716H2.3832C2.54132 12.9718 2.69297 13.0337 2.80528 13.1437C2.91759 13.2537 2.98149 13.403 2.98313 13.5593C2.98477 13.7156 2.92402 13.8663 2.81405 13.9786C2.70407 14.0909 2.55375 14.1558 2.39567 14.1592H2.38286ZM2.37931 13.3738C2.32786 13.3749 2.27896 13.3962 2.24334 13.4329C2.20772 13.4696 2.18831 13.5188 2.18935 13.5696C2.18988 13.5948 2.19543 13.6196 2.20567 13.6426C2.21591 13.6657 2.23065 13.6865 2.24904 13.7039C2.26744 13.7213 2.28913 13.735 2.31286 13.7441C2.3366 13.7533 2.36193 13.7577 2.38739 13.7571C2.43882 13.7568 2.48799 13.7362 2.52409 13.7C2.56018 13.6638 2.58025 13.6149 2.57987 13.564C2.57949 13.5132 2.5587 13.4646 2.52207 13.4289C2.48543 13.3932 2.43596 13.3734 2.38453 13.3738H2.37931ZM41.4454 12.9618L39.3908 12.385C39.3224 12.3658 39.2646 12.3205 39.23 12.2591C39.1954 12.1978 39.187 12.1253 39.2064 12.0577C39.2259 11.9902 39.2717 11.933 39.3338 11.8988C39.3959 11.8646 39.4692 11.8562 39.5376 11.8755L41.5922 12.4522C41.6544 12.4697 41.708 12.5088 41.7433 12.5623C41.7786 12.6158 41.7931 12.6801 41.7842 12.7434C41.7754 12.8066 41.7437 12.8646 41.695 12.9066C41.6463 12.9486 41.5839 12.9717 41.5193 12.9719C41.4943 12.9719 41.4694 12.9685 41.4453 12.9618H41.4454ZM13.1095 11.8959C13.0208 11.8298 12.958 11.7354 12.9319 11.6286C12.9057 11.5219 12.9178 11.4095 12.9661 11.3106C13.0144 11.2117 13.096 11.1324 13.1968 11.0862C13.2976 11.0401 13.4115 11.0299 13.519 11.0575C13.6266 11.0851 13.7211 11.1487 13.7866 11.2375C13.852 11.3262 13.8842 11.4347 13.8778 11.5443C13.8714 11.6539 13.8268 11.758 13.7514 11.8387C13.6761 11.9195 13.5748 11.9718 13.4647 11.987C13.4424 11.9899 13.4199 11.9915 13.3973 11.9916C13.2934 11.9916 13.1922 11.958 13.1094 11.8959H13.1095ZM23.4974 10.6844L19.8007 7.93446C19.772 7.91373 19.7477 7.8876 19.7294 7.85752C19.711 7.82745 19.6988 7.79402 19.6936 7.75927C19.6884 7.72451 19.6902 7.68912 19.699 7.65507C19.7078 7.62102 19.7233 7.58902 19.7447 7.56095C19.7661 7.53289 19.7929 7.50931 19.8236 7.49158C19.8543 7.47386 19.8882 7.46234 19.9235 7.4577C19.9587 7.45307 19.9945 7.45539 20.0288 7.46456C20.0631 7.47372 20.0953 7.48959 20.1233 7.51114L23.8204 10.2611C23.8627 10.2926 23.8947 10.3359 23.9122 10.3853C23.9298 10.4348 23.932 10.4883 23.9188 10.539C23.9055 10.5898 23.8774 10.6355 23.8378 10.6704C23.7983 10.7053 23.7491 10.7278 23.6966 10.7351C23.684 10.7369 23.6713 10.7378 23.6585 10.7379C23.6003 10.7379 23.5437 10.7191 23.4974 10.6843V10.6844ZM44.3518 7.24145C44.3024 7.19454 44.2681 7.13415 44.2533 7.06797C44.2386 7.00179 44.244 6.93278 44.269 6.86966C44.2939 6.80654 44.3373 6.75217 44.3935 6.7134C44.4497 6.67464 44.5163 6.65321 44.5849 6.65188C44.6767 6.65037 44.7654 6.68473 44.8318 6.74752C44.8981 6.8103 44.9367 6.89642 44.9392 6.98718C44.9401 7.0322 44.932 7.077 44.9154 7.11893C44.8988 7.16086 44.874 7.19915 44.8424 7.2316C44.8108 7.26406 44.7731 7.29003 44.7314 7.30806C44.6896 7.3261 44.6447 7.33584 44.5991 7.33671C44.5967 7.33671 44.5942 7.33671 44.5918 7.33671C44.5023 7.33694 44.4163 7.30276 44.3518 7.2414V7.24145ZM24.2208 3.3861C24.1981 3.37217 24.1784 3.35393 24.1629 3.33247C24.1473 3.31102 24.1361 3.28677 24.1301 3.26105C24.124 3.23534 24.1231 3.20865 24.1274 3.18259C24.1318 3.15654 24.1413 3.1316 24.1554 3.10918L24.5996 2.40418L23.8861 1.96634C23.8633 1.95245 23.8436 1.93425 23.828 1.91281C23.8124 1.89137 23.8013 1.86711 23.7952 1.84139C23.7891 1.81568 23.7882 1.78904 23.7926 1.76298C23.7969 1.73693 23.8064 1.71198 23.8205 1.68956L24.2646 0.984563L23.5511 0.54687C23.5284 0.532963 23.5087 0.514746 23.4931 0.493294C23.4775 0.471843 23.4663 0.447596 23.4603 0.421876C23.4542 0.396156 23.4533 0.369477 23.4576 0.343416C23.462 0.317354 23.4715 0.292422 23.4856 0.269999L23.9297 -0.435049L23.2163 -0.872838C23.1932 -0.886607 23.1731 -0.904773 23.1572 -0.92627C23.1413 -0.947768 23.1299 -0.972172 23.1236 -0.99807C23.1173 -1.02397 23.1163 -1.05086 23.1206 -1.07715C23.1249 -1.10344 23.1345 -1.12862 23.1487 -1.15123C23.163 -1.17384 23.1816 -1.19342 23.2036 -1.20885C23.2255 -1.22428 23.2504 -1.23525 23.2766 -1.24111C23.3029 -1.24697 23.3301 -1.24763 23.3566 -1.24301C23.3832 -1.2384 23.4085 -1.2286 23.4312 -1.21423L24.3178 -0.670382C24.3406 -0.656486 24.3603 -0.63826 24.3759 -0.616807C24.3915 -0.595354 24.4026 -0.571068 24.4087 -0.545341C24.4148 -0.519614 24.4157 -0.492943 24.4113 -0.466881C24.4069 -0.440818 24.3974 -0.415874 24.3832 -0.393464L23.9391 0.311537L24.6528 0.749278C24.6755 0.763194 24.6952 0.781365 24.7108 0.802806C24.7264 0.824246 24.7375 0.848525 24.7436 0.874224C24.7497 0.899924 24.7506 0.926545 24.7463 0.95259C24.7419 0.978633 24.7324 1.00358 24.7184 1.02601L24.2742 1.73101L24.9877 2.16884C25.0335 2.19698 25.0662 2.24196 25.0785 2.29388C25.0908 2.34581 25.0817 2.40041 25.0532 2.44571L24.5015 3.32143C24.4729 3.36682 24.4272 3.39909 24.3745 3.41122C24.3219 3.42334 24.2665 3.41433 24.2205 3.3861H24.2208ZM9.67832 2.64427C9.58911 2.63211 9.50816 2.58619 9.45254 2.51618C9.39692 2.44617 9.37097 2.35755 9.38017 2.269C9.38937 2.18045 9.433 2.09889 9.50185 2.04152C9.57071 1.98415 9.65941 1.95546 9.74926 1.96149C9.83911 1.96751 9.92307 2.00779 9.98346 2.07382C10.0438 2.13986 10.0759 2.22652 10.073 2.31549C10.07 2.40445 10.0322 2.48878 9.96748 2.55072C9.90281 2.61267 9.81633 2.64737 9.72628 2.6475C9.71023 2.64754 9.69421 2.64644 9.67832 2.64427ZM38.3726 2.40256C38.31 2.39443 38.2496 2.37411 38.1949 2.3428C38.1402 2.31148 38.0924 2.26978 38.0541 2.22009C38.0158 2.1704 37.9879 2.11369 37.9719 2.05327C37.9559 1.99285 37.9521 1.9299 37.9608 1.86804C37.9696 1.80618 37.9906 1.74668 38.0227 1.69289C38.0549 1.63911 38.0974 1.59215 38.148 1.55472C38.1986 1.51729 38.2562 1.49011 38.3174 1.47479C38.3787 1.45946 38.4424 1.45623 38.5049 1.46536H38.5047C38.6304 1.48267 38.744 1.54867 38.8205 1.64879C38.897 1.7489 38.9302 1.87494 38.9127 1.99922C38.8952 2.1235 38.8284 2.23585 38.7272 2.31149C38.6259 2.38713 38.4983 2.41987 38.3726 2.40256ZM31.1644 1.95502C30.8919 1.91739 30.6447 1.77663 30.4751 1.56238C30.3055 1.34814 30.2267 1.07714 30.2553 0.806565C30.2839 0.535989 30.4176 0.286974 30.6283 0.111984C30.8391 -0.0630059 31.1103 -0.150283 31.3848 -0.131438C31.6594 -0.112592 31.9158 0.0108976 32.1 0.212997C32.2843 0.415098 32.3819 0.679992 32.3724 0.951876C32.3629 1.22376 32.2469 1.48137 32.049 1.67039C31.851 1.85941 31.5866 1.96508 31.3114 1.9651C31.2622 1.96509 31.2131 1.96175 31.1644 1.95511L31.1644 1.95502ZM30.6627 0.827833C30.6389 0.997597 30.6843 1.16977 30.7889 1.30645C30.8935 1.44312 31.0488 1.53311 31.2205 1.55667C31.3058 1.56896 31.3926 1.56451 31.4761 1.54349C31.5596 1.52247 31.6381 1.48531 31.707 1.4342C31.7759 1.38309 31.834 1.319 31.8777 1.24564C31.9215 1.17228 31.9502 1.09109 31.9621 1.00674C31.974 0.922381 31.9689 0.836536 31.9471 0.754131C31.9253 0.671726 31.8873 0.594366 31.8352 0.526553C31.783 0.458741 31.7178 0.40179 31.6434 0.358974C31.5689 0.316159 31.4865 0.288338 31.4011 0.277089C31.3711 0.27297 31.3408 0.27089 31.3104 0.270855C31.1527 0.271116 31.0004 0.327584 30.8814 0.429917C30.7624 0.53225 30.6848 0.673611 30.6627 0.827976V0.827833ZM6.78975 1.67196L5.24545 0.213045C5.20713 0.176778 5.18056 0.130074 5.1691 0.0788679C5.15764 0.0276623 5.16181 -0.0257668 5.18109 -0.0746269C5.20036 -0.123487 5.23388 -0.165604 5.27738 -0.195624C5.32088 -0.225645 5.37241 -0.242205 5.42546 -0.243252C5.49645 -0.243745 5.56495 -0.217423 5.61695 -0.169645L7.16119 1.28979C7.1995 1.32604 7.22606 1.3727 7.23751 1.42387C7.24896 1.47505 7.2448 1.52844 7.22554 1.57727C7.20628 1.62611 7.17279 1.66817 7.12932 1.69818C7.08585 1.72818 7.03435 1.7448 6.98134 1.74585H6.97542C6.9062 1.74597 6.83962 1.71951 6.7897 1.6721L6.78975 1.67196ZM20.4769 -2.87764C20.388 -2.89005 20.3075 -2.93604 20.2524 -3.00597C20.1972 -3.0759 20.1716 -3.16428 20.1811 -3.25248C20.1905 -3.34068 20.2342 -3.42183 20.303 -3.47878C20.3718 -3.53572 20.4603 -3.56403 20.5498 -3.55776C20.6393 -3.55149 20.7228 -3.51111 20.7828 -3.44514C20.8428 -3.37916 20.8745 -3.29278 20.8712 -3.20414C20.868 -3.11551 20.8301 -3.03153 20.7655 -2.97C20.7008 -2.90846 20.6146 -2.87415 20.5248 -2.87427C20.5088 -2.87424 20.4927 -2.87533 20.4768 -2.8775L20.4769 -2.87764ZM12.3485 -4.65716C12.2805 -4.66634 12.2169 -4.69528 12.1656 -4.74028C12.1143 -4.78527 12.0777 -4.84431 12.0605 -4.9099C12.0432 -4.97549 12.046 -5.04469 12.0686 -5.10869C12.0911 -5.1727 12.1324 -5.22864 12.1872 -5.26942C12.2234 -5.29683 12.2648 -5.31677 12.3089 -5.32809C12.353 -5.33941 12.399 -5.34187 12.4442 -5.33532C12.5311 -5.32346 12.6102 -5.27946 12.6655 -5.21218C12.7209 -5.1449 12.7484 -5.05937 12.7424 -4.97285C12.7364 -4.88633 12.6975 -4.80527 12.6334 -4.74604C12.5693 -4.6868 12.4849 -4.65383 12.3972 -4.65373C12.3809 -4.65367 12.3646 -4.65476 12.3485 -4.65706V-4.65716Z" fill="#30A068"/>
<path id="SHAPE_2" d="M15.9285 28.7508C15.8058 28.7337 15.6946 28.6701 15.6184 28.5735C15.5421 28.477 15.5068 28.3549 15.5198 28.2331C15.5328 28.1113 15.5932 27.9992 15.6882 27.9205C15.7831 27.8419 15.9053 27.8027 16.0289 27.8113C16.1525 27.82 16.2679 27.8757 16.3508 27.9668C16.4337 28.0579 16.4775 28.1772 16.4731 28.2996C16.4687 28.422 16.4163 28.538 16.3271 28.623C16.2379 28.708 16.1188 28.7555 15.9949 28.7554C15.9727 28.7553 15.9505 28.7538 15.9285 28.7508ZM43.649 25.5812C43.5864 25.573 43.5261 25.5527 43.4715 25.5214C43.417 25.4901 43.3692 25.4484 43.331 25.3988C43.2927 25.3491 43.2648 25.2925 43.2488 25.2322C43.2328 25.1718 43.229 25.109 43.2377 25.0472C43.2464 24.9854 43.2674 24.9259 43.2994 24.8721C43.3314 24.8184 43.3739 24.7714 43.4244 24.734C43.4748 24.6965 43.5323 24.6693 43.5934 24.6539C43.6546 24.6385 43.7182 24.6352 43.7807 24.6441H43.7809C43.901 24.6605 44.0103 24.7213 44.0868 24.8143C44.1633 24.9073 44.2012 25.0255 44.1929 25.145C44.1847 25.2646 44.1308 25.3765 44.0422 25.4583C43.9536 25.5401 43.8369 25.5857 43.7157 25.5857C43.6933 25.5857 43.671 25.5842 43.6488 25.5812L43.649 25.5812ZM40.153 22.4399C40.1496 22.2563 40.2199 22.0789 40.3485 21.9465C40.4772 21.8141 40.6537 21.7374 40.8394 21.7334C41.0248 21.7323 41.2036 21.8012 41.3392 21.9261C41.4391 22.021 41.5084 22.143 41.5382 22.2767C41.568 22.4105 41.557 22.55 41.5066 22.6775C41.4561 22.8051 41.3686 22.915 41.255 22.9934C41.1413 23.0717 41.0068 23.115 40.8682 23.1178H40.8535C40.6703 23.1175 40.4944 23.0465 40.3635 22.9198C40.2326 22.7932 40.1569 22.621 40.1528 22.4399L40.153 22.4399ZM40.5598 22.4316C40.5627 22.5083 40.5956 22.5807 40.6516 22.6338C40.7077 22.6868 40.7824 22.7162 40.8599 22.7157C40.918 22.7145 40.9744 22.6964 41.0221 22.6635C41.0697 22.6306 41.1064 22.5846 41.1275 22.5311C41.1487 22.4776 41.1533 22.4191 41.1408 22.363C41.1283 22.307 41.0993 22.2558 41.0574 22.2161C40.9998 22.1648 40.9253 22.136 40.8478 22.1353C40.7698 22.1369 40.6957 22.169 40.6417 22.2246C40.5877 22.2801 40.5582 22.3546 40.5597 22.4317L40.5598 22.4316ZM48.1562 16.3222C48.1034 16.3175 48.0533 16.2973 48.0121 16.2644C47.9708 16.2315 47.9404 16.1872 47.9247 16.1372C47.9089 16.0872 47.9085 16.0337 47.9234 15.9834C47.9384 15.9332 47.9681 15.8884 48.0088 15.8549L51.5584 12.9285C51.5853 12.9058 51.6166 12.8886 51.6504 12.8779C51.6841 12.8673 51.7196 12.8633 51.7549 12.8663C51.7902 12.8693 51.8246 12.8792 51.856 12.8954C51.8874 12.9116 51.9153 12.9337 51.938 12.9606C51.9606 12.9876 51.9777 13.0186 51.9881 13.0521C51.9986 13.0856 52.0022 13.1208 51.9988 13.1556C51.9954 13.1905 51.985 13.2243 51.9683 13.2552C51.9516 13.2861 51.9288 13.3134 51.9013 13.3355L48.352 16.2619C48.304 16.3015 48.2435 16.3232 48.181 16.3232C48.1727 16.3233 48.1644 16.3229 48.1561 16.3223L48.1562 16.3222ZM22.1023 15.5626L21.2568 14.9585C21.2351 14.9431 21.2167 14.9235 21.2027 14.9011C21.1887 14.8786 21.1793 14.8537 21.175 14.8276C21.1708 14.8015 21.1717 14.7749 21.1779 14.7492C21.1841 14.7235 21.1953 14.6993 21.2109 14.6779C21.243 14.6352 21.2907 14.6066 21.3438 14.5983C21.3969 14.5899 21.4512 14.6024 21.4951 14.6331L22.1757 15.1192L22.6679 14.4474C22.6997 14.4042 22.7474 14.3753 22.8007 14.3669C22.854 14.3585 22.9085 14.3714 22.9522 14.4026L23.6328 14.8887L24.1253 14.2167C24.1409 14.1952 24.1607 14.177 24.1834 14.1631C24.2062 14.1493 24.2315 14.14 24.258 14.1358C24.2844 14.1317 24.3114 14.1327 24.3374 14.1389C24.3634 14.1451 24.3879 14.1563 24.4095 14.1719L25.0897 14.6581L25.5823 13.9861C25.614 13.9428 25.6617 13.9137 25.715 13.9052C25.7684 13.8967 25.8229 13.9095 25.8667 13.9408C25.9105 13.972 25.9399 14.0192 25.9485 14.0719C25.9571 14.1247 25.9442 14.1786 25.9126 14.2219L25.3009 15.0566C25.2966 15.0622 25.292 15.0679 25.2873 15.073C25.2537 15.1099 25.2074 15.1333 25.1574 15.1385C25.1074 15.1437 25.0573 15.1305 25.0165 15.1013L24.3363 14.6153L23.8438 15.2872C23.812 15.3302 23.7642 15.359 23.711 15.3674C23.6578 15.3757 23.6034 15.363 23.5595 15.332L22.8793 14.8459L22.387 15.5177C22.3553 15.5608 22.3076 15.5897 22.2544 15.5981C22.2435 15.5999 22.2326 15.6007 22.2216 15.6007C22.1787 15.6009 22.1369 15.5876 22.1021 15.5627L22.1023 15.5626ZM16.7326 14.9817C16.5926 14.8889 16.491 14.7494 16.4463 14.5887C16.4017 14.4279 16.4169 14.2567 16.4893 14.1061C16.5616 13.9556 16.6863 13.8358 16.8405 13.7685C16.9948 13.7012 17.1684 13.6909 17.3296 13.7395C17.4909 13.7882 17.6291 13.8924 17.7192 14.0333C17.8092 14.1743 17.845 14.3425 17.82 14.5073C17.7951 14.6722 17.711 14.8227 17.5832 14.9314C17.4554 15.0401 17.2924 15.0998 17.1237 15.0996C16.9844 15.0997 16.8482 15.0587 16.7325 14.9818L16.7326 14.9817ZM17.0678 14.1225C16.994 14.1368 16.9286 14.1786 16.8852 14.2393C16.8417 14.2999 16.8236 14.3748 16.8344 14.4483C16.8453 14.5219 16.8844 14.5884 16.9435 14.6343C17.0027 14.6801 17.0775 14.7017 17.1523 14.6946C17.2271 14.6874 17.2963 14.6521 17.3455 14.5959C17.3947 14.5397 17.4202 14.467 17.4166 14.3927C17.413 14.3185 17.3807 14.2485 17.3263 14.1972C17.2719 14.1459 17.1996 14.1172 17.1244 14.1171C17.1053 14.1171 17.0863 14.119 17.0676 14.1226L17.0678 14.1225ZM8.23318 14.049C8.14452 14.0367 8.06416 13.9909 8.00901 13.9212C7.95386 13.8514 7.92824 13.7633 7.93754 13.6753C7.94684 13.5873 7.99034 13.5062 8.05887 13.4493C8.1274 13.3924 8.21561 13.364 8.30492 13.37C8.39423 13.3761 8.47767 13.4162 8.53766 13.4819C8.59765 13.5476 8.62951 13.6337 8.62652 13.7222C8.62353 13.8106 8.58594 13.8944 8.52165 13.956C8.45736 14.0176 8.3714 14.0521 8.28188 14.0523C8.26551 14.0523 8.24916 14.0512 8.23293 14.0491L8.23318 14.049ZM44.8408 3.45044L43.803 3.34286C43.7764 3.3401 43.7507 3.33219 43.7272 3.31959C43.7038 3.307 43.683 3.28996 43.6662 3.26944C43.6494 3.24893 43.6369 3.22538 43.6293 3.20007C43.6217 3.17476 43.6193 3.14819 43.6221 3.12194C43.6248 3.0957 43.6328 3.07025 43.6456 3.04705C43.6583 3.02386 43.6756 3.00338 43.6963 2.98677C43.7171 2.97016 43.7409 2.95777 43.7665 2.95027C43.7921 2.94278 43.819 2.94033 43.8455 2.94309L44.681 3.02969L44.7687 2.20559C44.7714 2.17928 44.7792 2.15373 44.7919 2.13046C44.8046 2.10719 44.8218 2.08668 44.8426 2.07003C44.8634 2.05339 44.8873 2.04098 44.913 2.03354C44.9386 2.0261 44.9655 2.02377 44.9921 2.02669L45.8277 2.11319L45.9153 1.28909C45.921 1.23608 45.9477 1.18751 45.9896 1.15397C46.0315 1.12042 46.0852 1.10465 46.1388 1.11019L46.9742 1.19679L47.0618 0.372646C47.068 0.319866 47.0949 0.271574 47.1366 0.238136C47.1784 0.204698 47.2318 0.188777 47.2853 0.193743C47.3389 0.19933 47.3881 0.225725 47.4221 0.26716C47.456 0.308595 47.4719 0.361684 47.4663 0.414707L47.3574 1.43864C47.3547 1.46491 47.3467 1.49037 47.334 1.51358C47.3212 1.53679 47.3039 1.5573 47.2831 1.57386C47.2411 1.60729 47.1875 1.62301 47.1339 1.61769L46.2985 1.53114L46.2109 2.35528C46.2051 2.40821 46.1783 2.45666 46.1364 2.49017C46.0946 2.52367 46.041 2.53951 45.9874 2.53418L45.1519 2.44759L45.0644 3.27168C45.0591 3.32103 45.0355 3.3667 44.9982 3.39991C44.9609 3.43312 44.9125 3.45154 44.8623 3.45158C44.8551 3.45153 44.8478 3.45117 44.8406 3.45054L44.8408 3.45044ZM14.0076 1.83246C14.0061 1.76471 14.025 1.69804 14.0618 1.6409C14.0987 1.58377 14.1519 1.53874 14.2147 1.51149C14.2774 1.48423 14.347 1.47602 14.4145 1.48784C14.482 1.49966 14.5444 1.531 14.5939 1.57791C14.6434 1.62481 14.6777 1.68516 14.6925 1.75134C14.7072 1.81752 14.7018 1.88652 14.6769 1.94966C14.652 2.01279 14.6087 2.0672 14.5525 2.106C14.4962 2.1448 14.4297 2.16624 14.3611 2.16762C14.3588 2.16762 14.3562 2.16762 14.3541 2.16762C14.2635 2.16759 14.1765 2.13255 14.1117 2.06994C14.0469 2.00732 14.0094 1.9221 14.0074 1.83256L14.0076 1.83246ZM7.75236 -1.62949C7.69846 -1.62948 7.64676 -1.65065 7.60863 -1.6883C7.57049 -1.72595 7.54904 -1.77701 7.54899 -1.83028L7.54736 -3.24176C7.54736 -3.29509 7.56879 -3.34626 7.60692 -3.38398C7.64506 -3.4217 7.69678 -3.44294 7.75073 -3.44298L9.17939 -3.44398C9.23331 -3.44399 9.28502 -3.42286 9.32318 -3.38522C9.36134 -3.34757 9.38282 -3.29648 9.38291 -3.24319L9.38454 -1.83171C9.38455 -1.77837 9.36313 -1.72718 9.32498 -1.68945C9.28683 -1.65171 9.23508 -1.63052 9.18112 -1.63049L7.75236 -1.62949ZM7.95445 -3.04111L7.95558 -2.03146L8.97745 -2.03236L8.97617 -3.04197L7.95445 -3.04111ZM49.7126 -2.30271C49.5329 -2.32766 49.37 -2.4206 49.2582 -2.56198C49.1465 -2.70335 49.0946 -2.8821 49.1136 -3.06053C49.1326 -3.23895 49.2209 -3.40314 49.36 -3.51844C49.499 -3.63374 49.678 -3.69116 49.859 -3.6786C50.0401 -3.66604 50.2091 -3.58444 50.3305 -3.45107C50.4519 -3.3177 50.5162 -3.14295 50.5098 -2.96365C50.5033 -2.78435 50.4267 -2.61455 50.2961 -2.48999C50.1655 -2.36543 49.991 -2.29589 49.8095 -2.296C49.7771 -2.29598 49.7447 -2.29816 49.7126 -2.30257L49.7126 -2.30271ZM49.6319 -3.21992C49.5777 -3.17937 49.5394 -3.12145 49.5235 -3.0561C49.5076 -2.99075 49.5151 -2.92203 49.5448 -2.86154C49.5744 -2.80106 49.6244 -2.75258 49.6861 -2.72442C49.7479 -2.69625 49.8176 -2.69011 49.8834 -2.70705C49.9491 -2.72399 50.007 -2.76295 50.047 -2.8173C50.087 -2.87164 50.1067 -2.93805 50.1027 -3.00514C50.0987 -3.07224 50.0714 -3.1359 50.0253 -3.18528C49.9791 -3.23467 49.9171 -3.26671 49.8498 -3.27597C49.8362 -3.27776 49.8225 -3.27867 49.8088 -3.27864C49.7449 -3.27872 49.6828 -3.25804 49.6319 -3.21978V-3.21992Z" fill="#58C37A"/>
<path id="SHAPE_3" d="M1.54462 27.2569C1.49954 27.2508 1.45614 27.2359 1.41688 27.2131C1.37762 27.1904 1.34328 27.1603 1.31582 27.1244C1.28835 27.0885 1.26831 27.0476 1.25682 27.0041C1.24534 26.9606 1.24264 26.9153 1.24888 26.8708C1.26231 26.7811 1.31087 26.7002 1.38409 26.6456C1.4573 26.5909 1.5493 26.567 1.64024 26.5788C1.72713 26.5907 1.80623 26.6347 1.86157 26.7019C1.91691 26.7692 1.94437 26.8547 1.93839 26.9412C1.93242 27.0277 1.89345 27.1088 1.82938 27.168C1.7653 27.2272 1.68088 27.2602 1.59317 27.2602C1.57693 27.2602 1.56071 27.259 1.54462 27.2569ZM6.19475 24.6643C6.16529 24.6487 6.13921 24.6276 6.118 24.6022C6.09679 24.5767 6.08087 24.5473 6.07115 24.5158C6.06143 24.4842 6.05811 24.451 6.06136 24.4182C6.06461 24.3853 6.07438 24.3534 6.09011 24.3243L6.58764 23.4053L6.07744 23.1408C6.04773 23.1254 6.02139 23.1044 5.99994 23.079C5.9785 23.0535 5.96237 23.0241 5.9525 22.9925C5.94262 22.9608 5.9392 22.9275 5.94242 22.8945C5.94564 22.8616 5.95545 22.8295 5.97127 22.8003L6.58951 21.6584C6.62167 21.6003 6.67573 21.557 6.73996 21.538C6.80419 21.519 6.87339 21.5259 6.93255 21.5571C6.99171 21.5882 7.03605 21.6412 7.05593 21.7045C7.07581 21.7677 7.06963 21.8363 7.03874 21.8951L6.54121 22.8139L7.05155 23.0784C7.08124 23.0938 7.10755 23.1148 7.12898 23.1402C7.1504 23.1657 7.1665 23.1951 7.17636 23.2268C7.18622 23.2585 7.18963 23.2917 7.18641 23.3247C7.18318 23.3577 7.17338 23.3897 7.15757 23.4189L6.53933 24.561C6.50742 24.6197 6.45322 24.6636 6.38862 24.683C6.32403 24.7023 6.25431 24.6956 6.19475 24.6642V24.6643ZM15.3868 21.4583C15.2638 21.4413 15.1523 21.3777 15.0758 21.2809C14.9992 21.1842 14.9637 21.0619 14.9767 20.9397C14.9896 20.8176 15.0501 20.7052 15.1452 20.6263C15.2404 20.5473 15.3628 20.508 15.4867 20.5166C15.6107 20.5251 15.7264 20.5809 15.8095 20.6722C15.8926 20.7635 15.9366 20.8831 15.9322 21.0058C15.9279 21.1285 15.8755 21.2448 15.7861 21.33C15.6967 21.4153 15.5773 21.463 15.4531 21.4629C15.4309 21.4628 15.4088 21.4613 15.3868 21.4584V21.4583ZM47.3579 12.2967C47.3016 12.2889 47.2481 12.2674 47.2022 12.2342C47.1562 12.201 47.1193 12.1571 47.0945 12.1065C47.0698 12.0558 47.0581 11.9999 47.0605 11.9437C47.0628 11.8875 47.0792 11.8328 47.108 11.7843C47.1369 11.7358 47.1774 11.6951 47.226 11.6658C47.2745 11.6365 47.3296 11.6194 47.3864 11.6162C47.4432 11.613 47.5 11.6236 47.5516 11.6472C47.6033 11.6708 47.6483 11.7066 47.6826 11.7515C47.7101 11.7872 47.7302 11.828 47.7416 11.8715C47.7531 11.915 47.7557 11.9603 47.7493 12.0048C47.7375 12.0866 47.6964 12.1615 47.6333 12.2157C47.5702 12.2699 47.4894 12.2998 47.4059 12.2999C47.3898 12.3 47.3738 12.299 47.3579 12.2968V12.2967ZM27.7877 12.0775C27.7583 12.062 27.7321 12.0409 27.7109 12.0154C27.6897 11.99 27.6738 11.9606 27.664 11.929C27.6543 11.8974 27.651 11.8643 27.6543 11.8314C27.6575 11.7986 27.6673 11.7667 27.6831 11.7376L28.1806 10.8186L27.6704 10.5541C27.6407 10.5388 27.6144 10.5178 27.5929 10.4923C27.5715 10.4668 27.5553 10.4374 27.5455 10.4057C27.5356 10.3741 27.5322 10.3408 27.5354 10.3078C27.5386 10.2748 27.5484 10.2428 27.5643 10.2136L28.1825 9.07173C28.2146 9.01344 28.2686 8.97005 28.3329 8.95097C28.3972 8.9319 28.4665 8.9387 28.5258 8.96991C28.585 9.00112 28.6294 9.0542 28.6492 9.1176C28.669 9.181 28.6627 9.24959 28.6316 9.3084L28.1341 10.2272L28.6445 10.4917C28.6741 10.5071 28.7005 10.5281 28.7219 10.5536C28.7433 10.5791 28.7594 10.6085 28.7693 10.6402C28.7792 10.6718 28.7826 10.7051 28.7794 10.7381C28.7762 10.7711 28.7664 10.8031 28.7506 10.8323L28.1324 11.9742C28.1106 12.0144 28.0782 12.048 28.0386 12.0714C27.999 12.0948 27.9537 12.1071 27.9075 12.1071C27.8657 12.1073 27.8246 12.0972 27.7877 12.0777V12.0775ZM15.8066 9.03495L15.2433 8.47926L14.6801 9.03472C14.6298 9.08418 14.5617 9.11194 14.4907 9.11194C14.4197 9.11194 14.3516 9.08418 14.3013 9.03472C14.2764 9.01019 14.2567 8.98104 14.2433 8.94898C14.2298 8.91691 14.2229 8.88257 14.223 8.84787C14.223 8.81316 14.2299 8.7788 14.2434 8.74676C14.2569 8.71471 14.2766 8.68561 14.3015 8.66111L14.8647 8.10566L14.3013 7.55001C14.2764 7.52549 14.2567 7.49634 14.2433 7.46427C14.2298 7.43221 14.2229 7.39782 14.223 7.36312C14.223 7.32841 14.2299 7.29405 14.2434 7.26201C14.2569 7.22996 14.2766 7.20086 14.3015 7.17636C14.3526 7.12844 14.4203 7.10176 14.4907 7.10176C14.5611 7.10176 14.6288 7.12844 14.6799 7.17636H14.6801L15.2433 7.73206L15.8066 7.17636C15.8576 7.12834 15.9254 7.10157 15.9959 7.10157C16.0663 7.10157 16.1341 7.12834 16.1852 7.17636C16.2352 7.22588 16.2634 7.29302 16.2634 7.36302C16.2634 7.43302 16.2354 7.50015 16.1854 7.54973L15.6219 8.10542L16.1854 8.66088C16.2347 8.71069 16.2622 8.77773 16.2617 8.84744C16.2613 8.91714 16.2331 8.98387 16.1831 9.0331C16.1332 9.08232 16.0656 9.11008 15.9951 9.11032C15.9246 9.11056 15.8568 9.08327 15.8066 9.03438V9.03495ZM34.4535 2.3478C34.4217 2.33292 34.3932 2.312 34.3696 2.28623C34.346 2.26046 34.3278 2.23032 34.316 2.19758C34.3042 2.16485 34.299 2.13014 34.3007 2.09543C34.3025 2.06072 34.3111 2.02668 34.3262 1.99527L36.3068 -2.13148C36.3375 -2.19491 36.3924 -2.24376 36.4595 -2.26728C36.5265 -2.2908 36.6003 -2.28709 36.6646 -2.257C36.6964 -2.24212 36.7249 -2.22121 36.7485 -2.19543C36.772 -2.16965 36.7903 -2.13949 36.8021 -2.10674C36.8139 -2.07399 36.819 -2.03926 36.8172 -2.00454C36.8154 -1.96982 36.8067 -1.93581 36.7915 -1.90443L34.811 2.22237C34.7803 2.28578 34.7255 2.3346 34.6584 2.35812C34.5914 2.38164 34.5177 2.37796 34.4534 2.34789L34.4535 2.3478ZM43.6038 -3.69621L43.0405 -4.25191L42.4773 -3.69645C42.427 -3.64699 42.3589 -3.61923 42.2879 -3.61923C42.217 -3.61923 42.1489 -3.64699 42.0986 -3.69645C42.0737 -3.72094 42.054 -3.75005 42.0405 -3.7821C42.027 -3.81414 42.0201 -3.84851 42.0201 -3.88321C42.0201 -3.91791 42.027 -3.95227 42.0405 -3.98431C42.054 -4.01636 42.0737 -4.04543 42.0986 -4.06991L42.6618 -4.62537L42.0985 -5.18106C42.0736 -5.20555 42.0539 -5.23461 42.0404 -5.26666C42.0269 -5.29871 42.02 -5.33311 42.02 -5.36781C42.02 -5.40252 42.0269 -5.43687 42.0404 -5.46892C42.0539 -5.50097 42.0736 -5.53008 42.0985 -5.55457C42.1495 -5.60252 42.2173 -5.62922 42.2877 -5.62922C42.3581 -5.62922 42.4258 -5.60252 42.4768 -5.55457C42.4771 -5.55457 42.4771 -5.55457 42.4771 -5.55457L43.0403 -4.99911L43.6036 -5.55457C43.6546 -5.60259 43.7224 -5.62936 43.7929 -5.62936C43.8633 -5.62936 43.9311 -5.60259 43.9822 -5.55457C44.0322 -5.50505 44.0603 -5.43791 44.0604 -5.36791C44.0604 -5.29791 44.0324 -5.23078 43.9824 -5.1812L43.4189 -4.62551L43.9826 -4.06934C44.0318 -4.01951 44.0591 -3.95247 44.0587 -3.88283C44.0582 -3.81318 44.0299 -3.74658 43.98 -3.6974C43.9302 -3.64823 43.8626 -3.62049 43.7922 -3.62023C43.7217 -3.61997 43.654 -3.64718 43.6038 -3.69598V-3.69621Z" fill="#57C27A"/>
<path id="SHAPE_4" d="M20.6676 27.3501L20.1047 26.7943L19.5418 27.3501C19.517 27.3746 19.4875 27.3941 19.4551 27.4074C19.4227 27.4206 19.3879 27.4275 19.3528 27.4275C19.3177 27.4275 19.2829 27.4207 19.2505 27.4074C19.218 27.3941 19.1885 27.3747 19.1637 27.3502C19.1389 27.3256 19.1192 27.2965 19.1057 27.2644C19.0923 27.2324 19.0854 27.198 19.0854 27.1633C19.0853 27.1286 19.0922 27.0942 19.1057 27.0622C19.1191 27.0301 19.1388 27.001 19.1636 26.9764L19.7263 26.421L19.1636 25.8656C19.1136 25.816 19.0855 25.7489 19.0855 25.6789C19.0855 25.6089 19.1136 25.5418 19.1636 25.4923C19.2146 25.4442 19.2823 25.4174 19.3528 25.4174C19.4232 25.4174 19.491 25.4442 19.542 25.4923L20.1047 26.0477L20.6676 25.4923C20.7185 25.4442 20.7863 25.4174 20.8567 25.4174C20.9271 25.4174 20.9948 25.4442 21.0458 25.4923C21.0958 25.5418 21.1238 25.6089 21.1238 25.6789C21.1238 25.7488 21.0958 25.8159 21.0458 25.8654L20.4829 26.4208L21.0458 26.9763C21.0959 27.0259 21.124 27.0931 21.124 27.1631C21.124 27.2332 21.0958 27.3004 21.0456 27.3499C20.9955 27.3995 20.9275 27.4273 20.8566 27.4272C20.7857 27.4272 20.7177 27.3994 20.6676 27.3498V27.3501ZM31.79 27.0633C31.6667 27.0464 31.5548 26.9829 31.4779 26.886C31.401 26.7892 31.3651 26.6666 31.3779 26.5442C31.3906 26.4217 31.4509 26.3089 31.5461 26.2295C31.6413 26.1502 31.764 26.1105 31.8882 26.1187C32.0125 26.127 32.1286 26.1827 32.2122 26.2739C32.2958 26.3652 32.3402 26.485 32.3362 26.608C32.3322 26.731 32.2801 26.8477 32.1907 26.9335C32.1014 27.0193 31.9818 27.0674 31.8573 27.0678C31.8348 27.0677 31.8123 27.0662 31.79 27.0633ZM1.3078 25.7588C1.2184 25.7579 1.13301 25.722 1.07029 25.659C1.00758 25.596 0.972634 25.5111 0.973106 25.4227C0.973578 25.3343 1.00943 25.2497 1.07281 25.1873C1.1362 25.125 1.22197 25.09 1.31138 25.09C1.40078 25.09 1.48655 25.125 1.54994 25.1873C1.61333 25.2497 1.64918 25.3343 1.64965 25.4227C1.65012 25.5111 1.61518 25.596 1.55246 25.659C1.48974 25.722 1.40435 25.7579 1.31495 25.7588H1.3078ZM45.7352 22.554C45.4632 22.5162 45.2167 22.3756 45.0475 22.1616C44.8784 21.9477 44.8 21.6771 44.8287 21.4071C44.8574 21.1371 44.9911 20.8887 45.2015 20.7142C45.4119 20.5397 45.6827 20.4527 45.9567 20.4717C46.2307 20.4907 46.4865 20.6141 46.6703 20.8159C46.854 21.0177 46.9513 21.2822 46.9417 21.5535C46.932 21.8249 46.8162 22.0819 46.6185 22.2705C46.4209 22.459 46.1569 22.5643 45.8822 22.5642C45.833 22.5642 45.7839 22.5608 45.7352 22.554H45.7352ZM45.4873 21.002C45.3662 21.0921 45.2805 21.2209 45.2448 21.3665C45.2091 21.5121 45.2256 21.6654 45.2915 21.8004C45.3574 21.9353 45.4685 22.0435 45.606 22.1065C45.7436 22.1694 45.8989 22.1833 46.0456 22.1457C46.1923 22.1081 46.3213 22.0214 46.4106 21.9003C46.4998 21.7793 46.5439 21.6314 46.5351 21.4818C46.5264 21.3323 46.4655 21.1903 46.3628 21.0801C46.26 20.97 46.1218 20.8986 45.9717 20.8779C45.9412 20.8738 45.9106 20.8716 45.8798 20.8716C45.7381 20.8715 45.6002 20.9172 45.4872 21.0019L45.4873 21.002ZM36.2164 21.3263L34.6737 19.8683C34.6482 19.8442 34.6278 19.8155 34.6136 19.7837C34.5994 19.7518 34.5917 19.7176 34.5909 19.6828C34.5902 19.648 34.5963 19.6134 34.6091 19.581C34.6218 19.5486 34.6409 19.519 34.6652 19.4939C34.7146 19.4434 34.7822 19.4142 34.8532 19.4127C34.9243 19.4113 34.993 19.4376 35.0445 19.486L36.5872 20.9438C36.6386 20.9925 36.6682 21.0592 36.6697 21.1295C36.6712 21.1997 36.6444 21.2677 36.5952 21.3184C36.546 21.3692 36.4785 21.3985 36.4074 21.3999C36.3364 21.4014 36.2676 21.375 36.2163 21.3263H36.2164ZM24.7399 18.7316C24.6489 18.7313 24.5616 18.6957 24.497 18.6323C24.4324 18.5689 24.3957 18.4829 24.3948 18.3929C24.3938 18.303 24.4288 18.2163 24.492 18.1516C24.5553 18.0869 24.6418 18.0494 24.7327 18.0473C24.8244 18.0461 24.913 18.0802 24.9798 18.1423C25.0293 18.1892 25.0636 18.2495 25.0784 18.3157C25.0931 18.3818 25.0877 18.4508 25.0628 18.5139C25.0379 18.577 24.9946 18.6314 24.9384 18.6702C24.8821 18.709 24.8156 18.7303 24.747 18.7316H24.7399ZM6.88473 10.6882L6.35008 9.9691L5.6206 10.4932C5.57705 10.5245 5.52278 10.5375 5.46961 10.5293C5.41644 10.5212 5.3687 10.4925 5.33679 10.4497L4.80185 9.73072L4.07236 10.255C4.02885 10.2863 3.97455 10.2993 3.92135 10.2911C3.86816 10.283 3.82041 10.2543 3.78855 10.2114L3.13403 9.33104C3.10214 9.28803 3.08883 9.23425 3.09704 9.18154C3.10526 9.12884 3.13432 9.08151 3.17783 9.04998C3.22134 9.01845 3.27574 9.00528 3.32906 9.01339C3.38238 9.02151 3.43026 9.05027 3.46215 9.09328L3.9968 9.81237L4.72628 9.28822C4.76983 9.25699 4.8241 9.24404 4.87727 9.2522C4.93043 9.26036 4.97817 9.28895 5.01009 9.33176L5.54484 10.0507L6.27433 9.52645C6.31789 9.4953 6.37213 9.48241 6.42525 9.49058C6.47838 9.49875 6.5261 9.52733 6.55804 9.57009L7.09278 10.2891L7.82226 9.76502C7.84383 9.74925 7.86833 9.7378 7.89438 9.73143C7.92042 9.72506 7.94748 9.72385 7.974 9.72786C8.00051 9.73188 8.02597 9.74106 8.04889 9.75484C8.07181 9.76862 8.09174 9.78675 8.10754 9.80818C8.12334 9.82961 8.1347 9.85391 8.14095 9.87969C8.1472 9.90548 8.14823 9.93226 8.14398 9.95844C8.13972 9.98462 8.13027 10.0097 8.11616 10.0322C8.10205 10.0548 8.08356 10.0744 8.06176 10.0899L7.16849 10.7319C7.12495 10.7632 7.07066 10.7761 7.01748 10.768C6.96431 10.7598 6.91657 10.7311 6.88468 10.6883L6.88473 10.6882ZM33.8206 8.51699L32.4193 8.23878C32.3664 8.22827 32.3199 8.19746 32.29 8.15309C32.2601 8.10872 32.2492 8.05441 32.2597 8.00212L32.5407 6.61905C32.546 6.59317 32.5564 6.56859 32.5713 6.54668C32.5862 6.52477 32.6053 6.50599 32.6275 6.49139C32.6498 6.47679 32.6747 6.46663 32.701 6.46156C32.7272 6.45649 32.7541 6.45661 32.7803 6.46184L34.1816 6.74004C34.2345 6.75053 34.281 6.7813 34.3109 6.82564C34.3408 6.86998 34.3517 6.92425 34.3412 6.97652L34.0602 8.35959C34.0509 8.40507 34.0261 8.44599 33.9898 8.4754C33.9535 8.50481 33.908 8.52093 33.861 8.52098C33.8474 8.52095 33.8338 8.5196 33.8205 8.51694L33.8206 8.51699ZM32.6989 7.8845L33.7012 8.08339L33.9021 7.09433L32.8999 6.89544L32.6989 7.8845ZM1.20592 6.41712C1.08301 6.40009 0.971581 6.33653 0.895134 6.23988C0.818688 6.14322 0.783194 6.02098 0.796134 5.89896C0.809074 5.77695 0.869437 5.66467 0.964499 5.58579C1.05956 5.50691 1.18189 5.46762 1.30571 5.47616C1.42952 5.4847 1.54515 5.54039 1.6282 5.63156C1.71126 5.72273 1.75526 5.84225 1.75093 5.96486C1.7466 6.08748 1.69428 6.20362 1.60499 6.28884C1.5157 6.37406 1.39643 6.4217 1.27232 6.42168C1.25007 6.42168 1.22785 6.4201 1.20582 6.41702L1.20592 6.41712ZM27.3526 4.79514C27.3031 4.7483 27.2688 4.68796 27.254 4.62181C27.2392 4.55566 27.2446 4.48664 27.2695 4.42354C27.2944 4.36043 27.3378 4.30607 27.394 4.26733C27.4502 4.2286 27.5168 4.20723 27.5853 4.20595H27.5856C27.6311 4.20464 27.6765 4.21242 27.7189 4.22879C27.7613 4.24516 27.8 4.2698 27.8326 4.30126C27.8656 4.33226 27.892 4.36942 27.9103 4.4106C27.9287 4.45177 27.9385 4.49614 27.9393 4.54111C27.941 4.63191 27.9062 4.71969 27.8425 4.78515C27.7788 4.85061 27.6915 4.88841 27.5996 4.8903C27.5973 4.8903 27.5947 4.8903 27.5925 4.8903C27.503 4.8905 27.417 4.85637 27.3525 4.79505L27.3526 4.79514ZM-2.12113 2.23284L-3.45939 1.53126C-3.52205 1.49845 -3.56901 1.44243 -3.59001 1.37548C-3.61101 1.30854 -3.60435 1.23613 -3.57148 1.17403C-3.55503 1.14331 -3.53262 1.1161 -3.50553 1.09395C-3.47843 1.0718 -3.44718 1.05514 -3.41357 1.04494C-3.37996 1.03474 -3.34464 1.03117 -3.30964 1.03447C-3.27464 1.03778 -3.24064 1.0479 -3.20959 1.06421L-2.10654 1.6417L-1.52246 0.554815C-1.48907 0.492948 -1.43231 0.446624 -1.36453 0.42592C-1.29676 0.405215 -1.22345 0.41178 -1.16057 0.444238C-1.12947 0.460368 -1.1019 0.482428 -1.07946 0.509138C-1.05702 0.535848 -1.04015 0.566689 -1.02982 0.599874C-1.0195 0.63306 -1.01592 0.667946 -1.01929 0.702506C-1.02266 0.737065 -1.03292 0.770613 -1.04947 0.801235L-1.75924 2.12226C-1.77589 2.15361 -1.79883 2.18126 -1.82667 2.20353C-1.86743 2.23641 -1.91706 2.25671 -1.9694 2.26191C-2.02174 2.26711 -2.07447 2.25695 -2.12103 2.23274L-2.12113 2.23284ZM15.9555 0.967529C15.8578 0.95391 15.765 0.9167 15.6854 0.859188C15.6057 0.801676 15.5416 0.725632 15.4987 0.637796C15.4559 0.54996 15.4356 0.453032 15.4396 0.355596C15.4437 0.25816 15.472 0.163249 15.522 0.0792005C15.5721 -0.00484848 15.6423 -0.0754201 15.7265 -0.126252C15.8107 -0.177084 15.9062 -0.206608 16.0047 -0.21223C16.1032 -0.217852 16.2016 -0.199426 16.2911 -0.158512C16.3807 -0.117598 16.4587 -0.0554557 16.5181 0.022342C16.566 0.0843577 16.6008 0.155144 16.6207 0.230602C16.6405 0.306059 16.645 0.384655 16.6339 0.461843C16.6116 0.61778 16.5277 0.758649 16.4005 0.853478C16.2733 0.948308 16.1133 0.98934 15.9555 0.967624V0.967529ZM15.8462 0.353645C15.8406 0.403302 15.8549 0.453117 15.886 0.492533C15.917 0.531948 15.9624 0.557842 16.0125 0.564712C16.0625 0.571583 16.1133 0.558875 16.1541 0.529312C16.1948 0.49975 16.2223 0.455679 16.2306 0.406412C16.2341 0.38149 16.2326 0.356104 16.2262 0.331758C16.2198 0.307412 16.2086 0.284583 16.1932 0.264527C16.1778 0.24447 16.1586 0.227607 16.1366 0.2149C16.1147 0.202193 16.0904 0.193862 16.0652 0.190444C16.0143 0.183692 15.9627 0.197078 15.9217 0.227652C15.8807 0.258226 15.8535 0.303548 15.8461 0.353788L15.8462 0.353645ZM44.6348 -1.16479C44.5437 -1.16506 44.4565 -1.20075 44.3919 -1.26414C44.3273 -1.32753 44.2906 -1.41355 44.2896 -1.50352C44.2887 -1.59349 44.3236 -1.6802 44.3869 -1.74489C44.4501 -1.80959 44.5366 -1.84701 44.6276 -1.84914C44.6732 -1.85081 44.7187 -1.84322 44.7612 -1.82683C44.8037 -1.81044 44.8424 -1.78559 44.8748 -1.75384C44.9243 -1.707 44.9587 -1.64667 44.9735 -1.5805C44.9883 -1.51433 44.9828 -1.4453 44.9579 -1.38219C44.9329 -1.31907 44.8895 -1.26473 44.8333 -1.22603C44.777 -1.18732 44.7104 -1.166 44.6418 -1.16479H44.6348ZM27.8546 -1.48715L26.8451 -2.48568C26.8263 -2.50436 26.8113 -2.52652 26.8011 -2.55091C26.7909 -2.5753 26.7857 -2.60146 26.7857 -2.62785C26.7858 -2.65423 26.7911 -2.68032 26.8013 -2.70469C26.8116 -2.72905 26.8266 -2.7512 26.8455 -2.76983L27.8573 -3.76626C27.8955 -3.80385 27.9473 -3.8249 28.0013 -3.82483C28.0552 -3.82476 28.107 -3.80352 28.1451 -3.76583L29.1545 -2.76735C29.1734 -2.74868 29.1884 -2.72651 29.1986 -2.70212C29.2088 -2.67773 29.214 -2.65158 29.214 -2.62518C29.2139 -2.59879 29.2086 -2.57266 29.1984 -2.54829C29.1881 -2.52393 29.1731 -2.50182 29.1541 -2.4832L28.1425 -1.48677C28.1042 -1.44919 28.0524 -1.42813 27.9985 -1.4282C27.9445 -1.42827 27.8928 -1.44947 27.8546 -1.48715ZM27.277 -2.62727L27.9991 -1.91304L28.7225 -2.62566L28.0005 -3.33979L27.277 -2.62727Z" fill="#5AC57B"/>
<path id="SHAPE_5" d="M12.379 37.9747C12.2902 37.9625 12.2095 37.9166 12.1542 37.8468C12.0989 37.777 12.0731 37.6886 12.0824 37.6003C12.0917 37.5121 12.1353 37.4309 12.204 37.3739C12.2727 37.3168 12.3612 37.2883 12.4507 37.2944C12.5402 37.3006 12.6239 37.3409 12.6839 37.4068C12.744 37.4727 12.7758 37.5591 12.7727 37.6477C12.7696 37.7364 12.7317 37.8204 12.6672 37.882C12.6026 37.9436 12.5163 37.978 12.4266 37.978C12.4107 37.978 12.3948 37.9769 12.379 37.9747ZM28.9 30.2938C28.8718 30.273 28.848 30.2469 28.8301 30.217C28.8122 30.1871 28.8005 30.1539 28.7956 30.1195L28.6191 28.8978L27.3858 29.0723C27.3155 29.082 27.2442 29.064 27.1873 29.022C27.1305 28.98 27.0927 28.9176 27.0822 28.8482C27.0771 28.8138 27.079 28.7788 27.0876 28.7451C27.0963 28.7115 27.1116 28.6798 27.1327 28.6521C27.1537 28.6243 27.1802 28.6008 27.2104 28.5832C27.2406 28.5655 27.2741 28.5539 27.3089 28.549L28.8079 28.3373C28.8433 28.3319 28.8795 28.3339 28.9141 28.3431C28.9651 28.3563 29.0109 28.384 29.046 28.4228C29.0811 28.4616 29.1038 28.5097 29.1113 28.5612L29.1131 28.5731L29.1126 28.5773L29.3245 30.0439C29.3345 30.1133 29.3162 30.1838 29.2738 30.24C29.2314 30.2962 29.1683 30.3336 29.0981 30.344C29.0634 30.349 29.028 30.3472 28.9939 30.3386C28.9599 30.33 28.9279 30.3149 28.8998 30.294L28.9 30.2938ZM9.54553 27.2689C9.45445 27.2564 9.37214 27.2086 9.3167 27.1361C9.26125 27.0636 9.23722 26.9722 9.24989 26.8822C9.26256 26.7922 9.31088 26.7108 9.38424 26.656C9.4576 26.6012 9.54998 26.5774 9.64105 26.59C9.73206 26.6026 9.81428 26.6504 9.86967 26.7229C9.92506 26.7953 9.94907 26.8866 9.93644 26.9766C9.92371 27.0665 9.87541 27.1478 9.80214 27.2026C9.72887 27.2574 9.63661 27.2812 9.54558 27.2689H9.54553ZM28.8342 23.9325C28.7457 23.9203 28.6654 23.8746 28.6102 23.805C28.5551 23.7355 28.5295 23.6474 28.5387 23.5595C28.5479 23.4716 28.5913 23.3907 28.6597 23.3338C28.7281 23.2769 28.8162 23.2484 28.9054 23.2545C28.9946 23.2605 29.0779 23.3005 29.1379 23.3661C29.1978 23.4317 29.2297 23.5177 29.2267 23.606C29.2237 23.6944 29.1862 23.7781 29.122 23.8396C29.0578 23.9011 28.9719 23.9356 28.8825 23.9358C28.8664 23.9358 28.8503 23.9348 28.8342 23.9327V23.9325ZM21.9269 21.7816L21.1719 19.8102C21.159 19.7776 21.1528 19.7428 21.1536 19.7078C21.1545 19.6728 21.1623 19.6384 21.1767 19.6064C21.1911 19.5745 21.2118 19.5456 21.2376 19.5216C21.2633 19.4976 21.2937 19.479 21.3268 19.4666C21.3599 19.4543 21.3952 19.4486 21.4306 19.4498C21.466 19.4511 21.5007 19.4593 21.5329 19.4739C21.565 19.4886 21.5939 19.5094 21.6179 19.5352C21.6418 19.5609 21.6604 19.5911 21.6724 19.624L22.4271 21.5957C22.4397 21.6281 22.4456 21.6627 22.4446 21.6974C22.4435 21.7322 22.4356 21.7663 22.4211 21.798C22.4067 21.8297 22.3861 21.8582 22.3604 21.882C22.3348 21.9057 22.3047 21.9242 22.2718 21.9364C22.2388 21.9487 22.2038 21.9544 22.1686 21.9532C22.1334 21.952 22.0988 21.944 22.0668 21.9296C22.0348 21.9153 22.0059 21.8948 21.9819 21.8694C21.9578 21.844 21.9391 21.8141 21.9267 21.7816H21.9269ZM40.3657 18.4518L39.6123 16.4799C39.5999 16.4474 39.5941 16.413 39.5953 16.3783C39.5964 16.3437 39.6044 16.3096 39.6188 16.278C39.6333 16.2465 39.6539 16.218 39.6794 16.1943C39.705 16.1706 39.735 16.1521 39.7678 16.1399C39.8006 16.1276 39.8355 16.1219 39.8706 16.123C39.9056 16.1241 39.9401 16.132 39.972 16.1463C40.004 16.1606 40.0328 16.181 40.0567 16.2062C40.0807 16.2315 40.0994 16.2612 40.1118 16.2936L40.8652 18.2658C40.8807 18.3056 40.8861 18.3486 40.881 18.3909C40.8759 18.4333 40.8605 18.4739 40.8361 18.5091C40.8116 18.5443 40.7789 18.573 40.7408 18.593C40.7026 18.6129 40.6601 18.6234 40.6169 18.6235C40.5624 18.6235 40.5092 18.607 40.4643 18.5764C40.4194 18.5458 40.3851 18.5024 40.3657 18.452V18.4518ZM12.3832 18.369C12.1113 18.3312 11.865 18.1906 11.696 17.9767C11.527 17.7629 11.4486 17.4926 11.4773 17.2227C11.506 16.9529 11.6395 16.7046 11.8498 16.5302C12.0601 16.3558 12.3307 16.2689 12.6046 16.2879C12.8784 16.3068 13.1341 16.4302 13.3177 16.6318C13.5014 16.8335 13.5986 17.0978 13.589 17.369C13.5793 17.6402 13.4636 17.8971 13.266 18.0855C13.0685 18.274 12.8047 18.3792 12.5302 18.3791C12.481 18.3792 12.4318 18.376 12.383 18.3693L12.3832 18.369ZM11.882 17.2418C11.8642 17.3684 11.8848 17.4973 11.9411 17.6123C11.9975 17.7273 12.0871 17.8232 12.1985 17.8879C12.31 17.9526 12.4384 17.9831 12.5674 17.9757C12.6965 17.9683 12.8204 17.9232 12.9235 17.8461C13.0267 17.7691 13.1044 17.6636 13.1468 17.5429C13.1893 17.4222 13.1945 17.2917 13.162 17.1681C13.1295 17.0444 13.0606 16.9331 12.964 16.8481C12.8675 16.7631 12.7476 16.7084 12.6196 16.6907C12.5897 16.6867 12.5595 16.6846 12.5294 16.6846C12.3716 16.6847 12.2193 16.7412 12.1003 16.8436C11.9814 16.946 11.9038 17.0874 11.882 17.2418ZM6.30508 17.3417L4.21909 16.9061C4.18468 16.899 4.15203 16.8853 4.12301 16.8657C4.09399 16.8461 4.06917 16.821 4.04998 16.7918C4.03079 16.7627 4.01761 16.7302 4.01119 16.696C4.00477 16.6619 4.00524 16.6268 4.01257 16.5928C4.02773 16.5243 4.06963 16.4644 4.12916 16.4262C4.1887 16.3881 4.26107 16.3747 4.33054 16.389L6.41677 16.8245C6.48616 16.8391 6.54682 16.8804 6.58541 16.9393C6.62401 16.9981 6.63736 17.0697 6.62255 17.1383C6.60774 17.2069 6.56597 17.2669 6.50644 17.305C6.4469 17.3432 6.37447 17.3564 6.30508 17.3417ZM28.6136 17.1371C28.5457 17.1278 28.4821 17.0987 28.4309 17.0536C28.3797 17.0086 28.3432 16.9495 28.326 16.884C28.3088 16.8184 28.3116 16.7492 28.3342 16.6852C28.3567 16.6212 28.398 16.5653 28.4527 16.5245C28.4888 16.4972 28.5301 16.4772 28.5741 16.4659C28.6181 16.4546 28.664 16.4521 28.709 16.4586C28.7541 16.4648 28.7975 16.4797 28.8367 16.5025C28.8759 16.5252 28.9102 16.5555 28.9377 16.5913C28.9651 16.6272 28.9851 16.6681 28.9966 16.7116C29.008 16.7552 29.0107 16.8005 29.0044 16.845C28.9982 16.8896 28.9831 16.9325 28.96 16.9713C28.937 17.0101 28.9064 17.044 28.8701 17.0711C28.8338 17.0982 28.7925 17.118 28.7484 17.1293C28.7044 17.1407 28.6585 17.1433 28.6135 17.1371H28.6136ZM0.0783207 17.1285C-0.0122954 17.1155 -0.094021 17.0675 -0.149015 16.9952C-0.204009 16.9228 -0.227804 16.8318 -0.215209 16.7422C-0.202614 16.6525 -0.154649 16.5714 -0.0817864 16.5166C-0.00892337 16.4618 0.0829194 16.4377 0.173696 16.4496C0.260529 16.4616 0.339531 16.5057 0.394792 16.573C0.450054 16.6403 0.47747 16.7257 0.471522 16.8122C0.465573 16.8987 0.426703 16.9797 0.362735 17.039C0.298767 17.0983 0.214454 17.1314 0.126774 17.1317C0.110519 17.1316 0.0942819 17.1306 0.0781732 17.1284L0.0783207 17.1285ZM44.5246 15.9396C44.4357 15.9274 44.3551 15.8815 44.2997 15.8117C44.2443 15.7418 44.2185 15.6535 44.2278 15.5652C44.237 15.477 44.2805 15.3957 44.3492 15.3385C44.4178 15.2813 44.5063 15.2528 44.5958 15.2588C44.6854 15.2648 44.7691 15.3049 44.8293 15.3707C44.8895 15.4365 44.9216 15.5229 44.9187 15.6116C44.9157 15.7003 44.8781 15.7844 44.8137 15.8462C44.7493 15.908 44.6631 15.9427 44.5733 15.9429C44.557 15.9429 44.5407 15.9418 44.5245 15.9396L44.5246 15.9396ZM9.54962 7.66362C9.27768 7.62595 9.03116 7.48535 8.86203 7.27151C8.6929 7.05767 8.61437 6.78727 8.64299 6.51731C8.67161 6.24735 8.80515 5.99897 9.01546 5.82444C9.22577 5.64992 9.49641 5.5629 9.77034 5.58178C10.0443 5.60066 10.3001 5.72396 10.4839 5.92565C10.6676 6.12733 10.765 6.39168 10.7554 6.66295C10.7459 6.93422 10.6301 7.19119 10.4326 7.37976C10.2351 7.56832 9.97125 7.67375 9.69665 7.67376C9.64746 7.67375 9.59833 7.67036 9.54962 7.66362ZM9.04859 6.53606C9.0302 6.66647 9.05253 6.79932 9.11261 6.91684C9.17269 7.03437 9.26764 7.13095 9.38476 7.19367C9.50188 7.25639 9.63559 7.28224 9.76799 7.2678C9.9004 7.25335 10.0252 7.19929 10.1256 7.11283C10.2261 7.02637 10.2975 6.91164 10.3302 6.784C10.3629 6.65635 10.3554 6.5219 10.3086 6.3986C10.2619 6.27529 10.1782 6.16903 10.0687 6.09403C9.95921 6.01904 9.82917 5.97888 9.69596 5.97894C9.53826 5.97917 9.38594 6.03563 9.26701 6.138C9.14808 6.24036 9.07052 6.38173 9.04859 6.5361V6.53606ZM25.78 6.43133C25.7121 6.42202 25.6485 6.39295 25.5973 6.34788C25.546 6.3028 25.5095 6.24372 25.4923 6.17811C25.475 6.1125 25.4779 6.04332 25.5005 5.97932C25.5231 5.91531 25.5644 5.85938 25.6191 5.81859C25.6738 5.77779 25.7395 5.75392 25.808 5.75003C25.8764 5.74613 25.9444 5.76238 26.0035 5.7967C26.0626 5.83103 26.11 5.88189 26.1399 5.94287C26.1697 6.00385 26.1806 6.07224 26.1712 6.13933C26.1596 6.22108 26.1186 6.29594 26.0557 6.35021C25.9927 6.40447 25.9121 6.43447 25.8286 6.43471C25.8123 6.43468 25.7961 6.43357 25.78 6.43133ZM16.5579 5.12163C16.4975 5.08464 16.4544 5.02551 16.438 4.95714C16.4217 4.88878 16.4334 4.81679 16.4707 4.75697L18.8943 0.863268C18.9317 0.803706 18.9916 0.76126 19.0606 0.745221C19.1297 0.729182 19.2024 0.740825 19.2628 0.777671C19.3231 0.814517 19.3662 0.873551 19.3827 0.941776C19.3991 1.01 19.3875 1.08188 19.3504 1.14166L16.9268 5.03527C16.9085 5.06501 16.8843 5.09083 16.8557 5.11126C16.8272 5.13168 16.7948 5.14627 16.7604 5.15422C16.74 5.15897 16.7191 5.16138 16.6981 5.16136C16.6485 5.16137 16.5999 5.14761 16.5577 5.12168L16.5579 5.12163Z" fill="#40AE6F"/>
<path id="SHAPE_6" d="M25.9291 23.8846C25.8724 23.8846 25.8166 23.8708 25.7665 23.8445C25.7164 23.8182 25.6737 23.7801 25.6419 23.7336C25.6102 23.6872 25.5905 23.6337 25.5845 23.578C25.5786 23.5222 25.5865 23.4659 25.6077 23.4139C25.6289 23.3619 25.6626 23.3158 25.706 23.2798C25.7494 23.2437 25.8011 23.2186 25.8566 23.2069C25.912 23.1951 25.9695 23.197 26.0241 23.2123C26.0786 23.2277 26.1285 23.256 26.1694 23.2948C26.2188 23.3417 26.2531 23.4021 26.2678 23.4683C26.2825 23.5345 26.2771 23.6035 26.2522 23.6666C26.2272 23.7297 26.1839 23.7841 26.1277 23.8229C26.0715 23.8617 26.0049 23.8832 25.9364 23.8846H25.9291ZM3.72961 20.4842C3.64159 20.4716 3.56191 20.4258 3.50736 20.3564C3.45281 20.287 3.42765 20.1993 3.43717 20.1119C3.4467 20.0245 3.49016 19.9442 3.55842 19.8878C3.62667 19.8315 3.71438 19.8035 3.80309 19.8098C3.89179 19.816 3.97456 19.8561 4.03397 19.9216C4.09338 19.987 4.12479 20.0726 4.12158 20.1605C4.11838 20.2483 4.08081 20.3315 4.01679 20.3926C3.95277 20.4536 3.86729 20.4876 3.77836 20.4876C3.76206 20.4875 3.74579 20.4864 3.72966 20.4842H3.72961ZM37.0892 14.6111C36.998 14.6109 36.9106 14.5751 36.8459 14.5117C36.7812 14.4482 36.7444 14.3621 36.7434 14.2719C36.7425 14.1818 36.7774 14.095 36.8408 14.0302C36.9042 13.9654 36.9908 13.9278 37.0819 13.9257C37.1735 13.9259 37.2617 13.96 37.3292 14.0213C37.3622 14.0523 37.3886 14.0896 37.407 14.1308C37.4253 14.172 37.4352 14.2164 37.436 14.2614C37.4376 14.3522 37.4028 14.44 37.3391 14.5056C37.2755 14.5711 37.1882 14.6091 37.0963 14.6112L37.0892 14.6111ZM40.0776 6.53783C39.9861 6.53807 39.8982 6.50256 39.8331 6.439C39.768 6.37545 39.731 6.28902 39.7301 6.19858C39.7292 6.10814 39.7645 6.02104 39.8284 5.95625C39.8922 5.89146 39.9794 5.85422 40.0709 5.85272C40.1164 5.85129 40.1618 5.85903 40.2043 5.87541C40.2468 5.8918 40.2855 5.9165 40.3181 5.94807C40.3675 5.99502 40.4017 6.05542 40.4164 6.12159C40.4311 6.18776 40.4257 6.25677 40.4007 6.31986C40.3757 6.38296 40.3324 6.4373 40.2762 6.47607C40.22 6.51483 40.1534 6.53627 40.0849 6.53764L40.0776 6.53783ZM1.44691 0.342653C1.35797 0.330336 1.27734 0.284396 1.22202 0.214471C1.16669 0.144545 1.14098 0.0561057 1.15031 -0.0321867C1.15965 -0.120479 1.20329 -0.201749 1.27204 -0.25886C1.34079 -0.315972 1.42929 -0.34444 1.51889 -0.33832C1.60848 -0.3322 1.69217 -0.291947 1.75232 -0.22603C1.81248 -0.160113 1.84439 -0.0737089 1.84135 0.0150131C1.83831 0.103735 1.80054 0.187847 1.736 0.249585C1.67147 0.311323 1.58522 0.345876 1.49541 0.345983C1.47919 0.345986 1.46298 0.344861 1.44691 0.342653ZM12.5762 -0.461791C12.4874 -0.474103 12.4068 -0.520017 12.3515 -0.589878C12.2963 -0.65974 12.2706 -0.748086 12.2799 -0.836298C12.2892 -0.924509 12.3328 -1.00572 12.4015 -1.06278C12.4702 -1.11985 12.5586 -1.1483 12.6481 -1.14219C12.7376 -1.13609 12.8212 -1.09589 12.8813 -1.03005C12.9415 -0.964201 12.9734 -0.877882 12.9703 -0.789241C12.9673 -0.700599 12.9296 -0.616558 12.8652 -0.554859C12.8007 -0.49316 12.7145 -0.458598 12.6248 -0.458461C12.6085 -0.458406 12.5923 -0.45953 12.5762 -0.461791H12.5762Z" fill="#56C179"/>
</g>
</g>
</g>
</g>
<defs>
<clipPath id="clip0_1213_6472">
<rect width="48" height="32" fill="white"/>
</clipPath>
</defs>
</svg>
