<svg width="48" height="32" viewBox="0 0 48 32" fill="none" xmlns="http://www.w3.org/2000/svg">
<rect x="0.5" y="0.5" width="47" height="31" rx="3.5" stroke="#D5D5D6"/>
<path d="M25.2072 16.7072L34.2072 7.70718L32.793 6.29297L23.793 15.293L25.2072 16.7072Z" fill="#2B2D33"/>
<path d="M23 8.50006C23 7.39549 23.8954 6.50006 25 6.50006C26.1046 6.50006 27 7.39549 27 8.50006C27 9.60463 26.1046 10.5001 25 10.5001C23.8954 10.5001 23 9.60463 23 8.50006Z" fill="#2B2D33"/>
<path d="M19 7.00006C17.9356 7.00006 17.2701 7.80028 16.8959 8.45958C16.497 9.16242 16.221 10.0537 16.0256 10.9002C15.7137 12.2518 15.5657 13.6811 15.518 14.499C15.3672 14.6287 15.1878 14.7966 15.0067 14.9978C14.571 15.4819 14 16.2986 14 17.3334V17.9782C13.9997 17.9929 13.9997 18.0076 14 18.0222V24.0001C14 24.5523 14.4477 25.0001 15 25.0001H19C19.5523 25.0001 20 24.5523 20 24.0001V23.0001H28V24.0001C28 24.5523 28.4477 25.0001 29 25.0001H33C33.5523 25.0001 34 24.5523 34 24.0001V18.3334H32V23.0001H30V21.0001H18V23.0001H16V19.3875L17.6838 19.9487C18.2077 20.1234 18.7741 19.8402 18.9487 19.3163C19.1234 18.7923 18.8402 18.226 18.3163 18.0514L16.0019 17.2799C16.0216 16.9935 16.1976 16.6642 16.4933 16.3357C16.6145 16.2011 16.7376 16.087 16.84 16.0001H22V14.0001H17.5619C17.6293 13.2744 17.7577 12.2889 17.9744 11.3499C18.154 10.5714 18.378 9.90021 18.6353 9.44679C18.7628 9.22217 18.8727 9.0977 18.9476 9.03707C18.9791 9.01152 18.9981 9.00249 19.0039 9.00006H21V7.00006H19Z" fill="#2B2D33"/>
<path d="M33 12.5001C31.8954 12.5001 31 13.3955 31 14.5001C31 15.6046 31.8954 16.5001 33 16.5001C34.1046 16.5001 35 15.6046 35 14.5001C35 13.3955 34.1046 12.5001 33 12.5001Z" fill="#2B2D33"/>
</svg>
