<svg width="48" height="32" viewBox="0 0 48 32" fill="none" xmlns="http://www.w3.org/2000/svg">
<rect x="0.5" y="0.5" width="47" height="31" rx="3.5" stroke="#D5D5D6"/>
<path d="M24.9296 9H14V7H24.9296C25.9327 7 26.8694 7.5013 27.4258 8.3359L30.5352 13H33C33.5523 13 34 13.4477 34 14L34 25C34 25.2652 33.8946 25.5196 33.7071 25.7071C33.5196 25.8946 33.2652 26 33 26H16C14.8954 26 14 25.1046 14 24V19H16L16 22.0854C16.1564 22.0301 16.3247 22 16.5 22C17.3284 22 18 22.6716 18 23.5C18 23.6753 17.9699 23.8436 17.9146 24L30.0854 24C30.0301 23.8436 30 23.6753 30 23.5C30 22.6716 30.6716 22 31.5 22C31.6753 22 31.8436 22.0301 32 22.0854V16.9146C31.8436 16.9699 31.6753 17 31.5 17C30.6716 17 30 16.3284 30 15.5C30 15.3247 30.0301 15.1564 30.0854 15L25 15C24.6687 15 24.2582 15.0004 23.856 15.0161C24.0972 15.2234 24.3615 15.4427 24.6306 15.6614C25.1217 16.0604 25.6145 16.4454 25.9855 16.7314C26.5551 17.1705 27.0854 17.5938 27.3237 18.3088C27.4281 18.6221 27.4908 19.0203 27.4025 19.4617C27.3127 19.9106 27.0808 20.3334 26.7071 20.7071C25.8317 21.5825 24.6251 21.4948 23.9289 21.3556C23.5449 21.2788 23.2074 21.1656 22.9691 21.074C22.3145 20.8222 21.6941 20.4841 21.0554 20.1957C20.7391 20.0528 20.4086 19.9035 20.0628 19.7427C19.16 19.323 18.2016 18.8458 17.3278 18.2745C15.5911 17.1389 14 15.5004 14 13V12H16V13C16 14.4996 16.9089 15.6111 18.4222 16.6005C19.1734 17.0917 20.0275 17.5207 20.906 17.9291C21.205 18.0682 21.5143 18.208 21.8228 18.3475C22.3881 18.6031 22.951 18.8576 23.4446 19.1043L23.4521 19.1079C23.4606 19.1119 23.4758 19.119 23.4969 19.1285C23.5393 19.1475 23.6046 19.1755 23.6871 19.2073C23.8551 19.2719 24.0801 19.3462 24.3211 19.3944C24.8749 19.5052 25.1683 19.4175 25.2929 19.2929C25.4192 19.1666 25.4373 19.0894 25.4413 19.0695C25.4467 19.0422 25.4469 19.0029 25.4263 18.9412C25.4044 18.8754 25.3664 18.8085 25.3269 18.7531C25.3221 18.7464 25.3175 18.7402 25.3132 18.7345L25.2236 18.6667C25.1125 18.5824 24.9543 18.4617 24.7645 18.3154C24.3855 18.0233 23.8783 17.6271 23.3694 17.2136C22.864 16.803 22.3422 16.3634 21.9411 15.9873C21.743 15.8017 21.5537 15.6124 21.407 15.4381C21.3347 15.3523 21.2533 15.2473 21.1846 15.1315C21.1365 15.0502 21 14.8133 21 14.5C21 14.0578 21.2355 13.746 21.4425 13.5711C21.6334 13.4098 21.8463 13.3195 22.001 13.266C22.3175 13.1564 22.6931 13.1007 23.0255 13.0675C23.7004 13 24.4902 13 24.9812 13H28.1315L25.7617 9.4453C25.5762 9.1671 25.264 9 24.9296 9Z" fill="#2B2D33"/>
</svg>
