<svg width="48" height="32" viewBox="0 0 48 32" fill="none" xmlns="http://www.w3.org/2000/svg">
<rect x="0.5" y="0.5" width="47" height="31" rx="3.5" stroke="#D5D5D6"/>
<path fill-rule="evenodd" clip-rule="evenodd" d="M28 10C28 9.44773 28.4477 9.00002 29 9.00002H33C33.5523 9.00002 34 9.44773 34 10L34 24C34 24.5523 33.5523 25 33 25H29C28.4477 25 28 24.5523 28 24V10ZM30 11V23H32L32 11H30ZM14 18C14 17.4477 14.4477 17 15 17H19C19.5523 17 20 17.4477 20 18L20 24C20 24.5523 19.5523 25 19 25H15C14.4477 25 14 24.5523 14 24V18ZM16 19V23H18V19H16ZM21 14C21 13.4477 21.4477 13 22 13H26C26.5523 13 27 13.4477 27 14L27 24C27 24.5523 26.5523 25 26 25L22 25C21.4477 25 21 24.5523 21 24V14ZM23 15V23H25V15H23ZM22.9999 8.41447L16.7072 14.7071L15.293 13.2929L21.586 7.00001L19.4999 7L19.4999 5L23.9999 5.00002C24.2652 5.00002 24.5195 5.10537 24.707 5.29291C24.8946 5.48045 24.9999 5.7348 24.9999 6.00002L24.9999 10.5L22.9999 10.5L22.9999 8.41447Z" fill="#2B2D33"/>
</svg>
