<svg width="48" height="32" viewBox="0 0 48 32" fill="none" xmlns="http://www.w3.org/2000/svg">
<rect x="0.5" y="0.5" width="47" height="31" rx="3.5" stroke="#D5D5D6"/>
<path d="M18.8782 21H13.2262V12H18.8782V13.692H15.2182V15.6H18.4582V17.16H15.2182V19.308H18.8782V21ZM24.0687 21.18C22.9647 21.18 22.0687 20.848 21.3807 20.184C20.7007 19.512 20.3607 18.684 20.3607 17.7V12H22.3527V17.712C22.3527 18.216 22.5047 18.64 22.8087 18.984C23.1207 19.32 23.5367 19.488 24.0567 19.488C24.6007 19.488 25.0287 19.32 25.3407 18.984C25.6607 18.64 25.8207 18.216 25.8207 17.712V12H27.6927V17.7C27.6927 18.684 27.3567 19.512 26.6847 20.184C26.0127 20.848 25.1407 21.18 24.0687 21.18ZM31.5541 17.832V21H29.5621V12H32.5141C33.5541 12 34.3821 12.26 34.9981 12.78C35.6141 13.3 35.9221 13.996 35.9221 14.868C35.9221 15.412 35.7781 15.9 35.4901 16.332C35.2101 16.764 34.8141 17.1 34.3021 17.34L36.3781 20.064V21H34.6621L32.3581 17.832H31.5541ZM31.5181 13.692V16.224H32.5021C32.9421 16.224 33.2901 16.104 33.5461 15.864C33.8021 15.616 33.9301 15.292 33.9301 14.892C33.9301 14.54 33.8021 14.252 33.5461 14.028C33.2981 13.804 32.9501 13.692 32.5021 13.692H31.5181Z" fill="#2B2D33"/>
</svg>
