<svg width="16" height="16" viewBox="0 0 16 16" fill="none" xmlns="http://www.w3.org/2000/svg">
<g id="info-ring">
<g id="info">
<path d="M8.99992 5.66671C8.99992 6.21899 8.5522 6.66671 7.99992 6.66671C7.44763 6.66671 6.99992 6.21899 6.99992 5.66671C6.99992 5.11442 7.44763 4.66671 7.99992 4.66671C8.5522 4.66671 8.99992 5.11442 8.99992 5.66671Z" fill="#5878AA"/>
<path d="M6.33325 11.3334V10H7.33325V8.66671H6.66659V7.33337H7.99992C8.36811 7.33337 8.66659 7.63185 8.66659 8.00004V10H9.66659V11.3334H6.33325Z" fill="#5878AA"/>
<path fill-rule="evenodd" clip-rule="evenodd" d="M7.99992 14.6667C4.31802 14.6667 1.33325 11.6819 1.33325 8.00004C1.33325 4.31814 4.31802 1.33337 7.99992 1.33337C11.6818 1.33337 14.6666 4.31814 14.6666 8.00004C14.6666 11.6819 11.6818 14.6667 7.99992 14.6667ZM7.99992 13.3334C10.9454 13.3334 13.3333 10.9456 13.3333 8.00004C13.3333 5.05452 10.9454 2.66671 7.99992 2.66671C5.0544 2.66671 2.66659 5.05452 2.66659 8.00004C2.66659 10.9456 5.0544 13.3334 7.99992 13.3334Z" fill="#5878AA"/>
</g>
</g>
</svg>
