<svg width="48" height="32" viewBox="0 0 48 32" fill="none" xmlns="http://www.w3.org/2000/svg">
<rect x="0.5" y="0.5" width="47" height="31" rx="3.5" stroke="#D5D5D6"/>
<path fill-rule="evenodd" clip-rule="evenodd" d="M22 6C20.3431 6 19 7.34315 19 9V10H15C14.4477 10 14 10.4477 14 11V15C14 15.5523 14.4477 16 15 16V25C15 25.5523 15.4477 26 16 26H32C32.5523 26 33 25.5523 33 25V16C33.5523 16 34 15.5523 34 15V11C34 10.4477 33.5523 10 33 10H29V9C29 7.34315 27.6569 6 26 6C25.2316 6 24.5308 6.28885 24 6.7639C23.4692 6.28885 22.7684 6 22 6ZM22 8C22.5523 8 23 8.44772 23 9V10H21V9C21 8.44772 21.4477 8 22 8ZM26 8C26.5523 8 27 8.44772 27 9V10H25V9C25 8.44772 25.4477 8 26 8ZM25 16H31V24H25V16ZM17 24V16H23V24H17ZM25 14V12H32V14H25ZM23 14V12H16V14H23Z" fill="#2B2D33"/>
</svg>
