<svg width="48" height="32" viewBox="0 0 48 32" fill="none" xmlns="http://www.w3.org/2000/svg">
<rect x="0.5" y="0.500061" width="47" height="31" rx="3.5" stroke="#D5D5D6"/>
<path d="M14.2494 17.8321V21.0001H12.2574V12.0001H15.2094C16.2494 12.0001 17.0774 12.2601 17.6934 12.7801C18.3094 13.3001 18.6174 13.9961 18.6174 14.8681C18.6174 15.4121 18.4734 15.9001 18.1854 16.3321C17.9054 16.7641 17.5094 17.1001 16.9974 17.3401L19.0734 20.0641V21.0001H17.3574L15.0534 17.8321H14.2494ZM14.2134 13.6921V16.2241H15.1974C15.6374 16.2241 15.9854 16.1041 16.2414 15.8641C16.4974 15.6161 16.6254 15.2921 16.6254 14.8921C16.6254 14.5401 16.4974 14.2521 16.2414 14.0281C15.9934 13.8041 15.6454 13.6921 15.1974 13.6921H14.2134ZM23.9788 21.1801C22.8748 21.1801 21.9788 20.8481 21.2908 20.1841C20.6108 19.5121 20.2708 18.6841 20.2708 17.7001V12.0001H22.2628V17.7121C22.2628 18.2161 22.4148 18.6401 22.7188 18.9841C23.0308 19.3201 23.4468 19.4881 23.9668 19.4881C24.5108 19.4881 24.9388 19.3201 25.2508 18.9841C25.5708 18.6401 25.7308 18.2161 25.7308 17.7121V12.0001H27.6028V17.7001C27.6028 18.6841 27.2668 19.5121 26.5948 20.1841C25.9228 20.8481 25.0508 21.1801 23.9788 21.1801ZM33.1083 21.0001H29.4723V12.0001H33.0603C33.9243 12.0001 34.6123 12.2201 35.1243 12.6601C35.6443 13.1001 35.9043 13.6841 35.9043 14.4121C35.9043 14.8441 35.7963 15.2281 35.5803 15.5641C35.3643 15.9001 35.0723 16.1401 34.7043 16.2841C35.1843 16.4361 35.5603 16.6921 35.8323 17.0521C36.1043 17.4121 36.2403 17.8321 36.2403 18.3121C36.2403 19.1361 35.9603 19.7921 35.4003 20.2801C34.8403 20.7601 34.0763 21.0001 33.1083 21.0001ZM31.3803 13.5841V15.6241H32.7483C33.1243 15.6241 33.4203 15.5361 33.6363 15.3601C33.8523 15.1761 33.9603 14.9281 33.9603 14.6161C33.9603 14.3041 33.8563 14.0561 33.6483 13.8721C33.4403 13.6801 33.1563 13.5841 32.7963 13.5841H31.3803ZM31.3803 17.1361V19.4161H32.9043C33.3363 19.4161 33.6723 19.3041 33.9123 19.0801C34.1603 18.8561 34.2843 18.5761 34.2843 18.2401C34.2843 17.9121 34.1643 17.6481 33.9243 17.4481C33.6923 17.2401 33.3563 17.1361 32.9163 17.1361H31.3803Z" fill="#2B2D33"/>
</svg>
