<svg width="48" height="32" viewBox="0 0 48 32" fill="none" xmlns="http://www.w3.org/2000/svg">
<rect x="0.5" y="0.5" width="47" height="31" rx="3.5" stroke="#D5D5D6"/>
<path d="M14.6058 21.18C13.5018 21.18 12.6058 20.848 11.9178 20.184C11.2378 19.512 10.8978 18.684 10.8978 17.7V12H12.8898V17.712C12.8898 18.216 13.0418 18.64 13.3458 18.984C13.6578 19.32 14.0738 19.488 14.5938 19.488C15.1378 19.488 15.5658 19.32 15.8778 18.984C16.1978 18.64 16.3578 18.216 16.3578 17.712V12H18.2298V17.7C18.2298 18.684 17.8938 19.512 17.2218 20.184C16.5498 20.848 15.6778 21.18 14.6058 21.18ZM23.0032 21.18C22.0672 21.18 21.3312 21 20.7952 20.64C20.2512 20.28 19.8832 19.852 19.6912 19.356V18.456H21.2632C21.5272 19.184 22.1192 19.548 23.0392 19.548C23.4632 19.548 23.8032 19.456 24.0592 19.272C24.3152 19.08 24.4432 18.82 24.4432 18.492C24.4432 18.196 24.3352 17.96 24.1192 17.784C23.9112 17.608 23.5792 17.468 23.1232 17.364L22.2952 17.208C21.4712 17.04 20.8392 16.736 20.3992 16.296C19.9592 15.848 19.7392 15.268 19.7392 14.556C19.7392 13.7 20.0392 13.028 20.6392 12.54C21.2392 12.06 22.0312 11.82 23.0152 11.82C23.8392 11.82 24.5192 11.98 25.0552 12.3C25.5992 12.62 25.9352 13.056 26.0632 13.608V14.52H24.5032C24.3192 13.808 23.8072 13.452 22.9672 13.452C22.5592 13.452 22.2392 13.544 22.0072 13.728C21.7832 13.912 21.6712 14.152 21.6712 14.448C21.6712 14.944 22.0712 15.28 22.8712 15.456L23.7352 15.648C24.5752 15.824 25.2232 16.144 25.6792 16.608C26.1432 17.064 26.3752 17.656 26.3752 18.384C26.3752 19.232 26.0632 19.912 25.4392 20.424C24.8152 20.928 24.0032 21.18 23.0032 21.18ZM31.013 21H27.857V12H31.013C32.357 12 33.441 12.428 34.265 13.284C35.089 14.14 35.501 15.2 35.501 16.464C35.501 17.744 35.089 18.82 34.265 19.692C33.441 20.564 32.357 21 31.013 21ZM29.849 13.692V19.308H30.977C31.737 19.308 32.337 19.04 32.777 18.504C33.225 17.96 33.449 17.28 33.449 16.464C33.449 15.672 33.225 15.012 32.777 14.484C32.337 13.956 31.737 13.692 30.977 13.692H29.849Z" fill="#2B2D33"/>
</svg>
