<svg width="48" height="32" viewBox="0 0 48 32" fill="none" xmlns="http://www.w3.org/2000/svg">
<rect x="0.5" y="0.5" width="47" height="31" rx="3.5" stroke="#D5D5D6"/>
<path d="M15.8089 21.18C14.7049 21.18 13.8089 20.848 13.1209 20.184C12.4409 19.512 12.1009 18.684 12.1009 17.7V12H14.0929V17.712C14.0929 18.216 14.2449 18.64 14.5489 18.984C14.8609 19.32 15.2769 19.488 15.7969 19.488C16.3409 19.488 16.7689 19.32 17.0809 18.984C17.4009 18.64 17.5609 18.216 17.5609 17.712V12H19.4329V17.7C19.4329 18.684 19.0969 19.512 18.4249 20.184C17.7529 20.848 16.8809 21.18 15.8089 21.18ZM27.5544 19.308V21H20.8104V19.428L25.0824 13.692H20.9304V12H27.4224V13.572L23.1624 19.308H27.5544ZM31.9173 21.18C30.9813 21.18 30.2453 21 29.7093 20.64C29.1653 20.28 28.7973 19.852 28.6053 19.356V18.456H30.1773C30.4413 19.184 31.0333 19.548 31.9533 19.548C32.3773 19.548 32.7173 19.456 32.9733 19.272C33.2293 19.08 33.3573 18.82 33.3573 18.492C33.3573 18.196 33.2493 17.96 33.0333 17.784C32.8253 17.608 32.4933 17.468 32.0373 17.364L31.2093 17.208C30.3853 17.04 29.7533 16.736 29.3133 16.296C28.8733 15.848 28.6533 15.268 28.6533 14.556C28.6533 13.7 28.9533 13.028 29.5533 12.54C30.1533 12.06 30.9453 11.82 31.9293 11.82C32.7533 11.82 33.4333 11.98 33.9693 12.3C34.5133 12.62 34.8493 13.056 34.9773 13.608V14.52H33.4173C33.2333 13.808 32.7213 13.452 31.8813 13.452C31.4733 13.452 31.1533 13.544 30.9213 13.728C30.6973 13.912 30.5853 14.152 30.5853 14.448C30.5853 14.944 30.9853 15.28 31.7853 15.456L32.6493 15.648C33.4893 15.824 34.1373 16.144 34.5933 16.608C35.0573 17.064 35.2893 17.656 35.2893 18.384C35.2893 19.232 34.9773 19.912 34.3533 20.424C33.7293 20.928 32.9173 21.18 31.9173 21.18Z" fill="#2B2D33"/>
</svg>
