<svg width="48" height="32" viewBox="0 0 48 32" fill="none" xmlns="http://www.w3.org/2000/svg">
<rect x="0.5" y="0.5" width="47" height="31" rx="3.5" stroke="#D5D5D6"/>
<path d="M30 15H28V17H30V15Z" fill="#2B2D33"/>
<path fill-rule="evenodd" clip-rule="evenodd" d="M32 23V20H33C33.5523 20 34 19.5523 34 19V13C34 12.4477 33.5523 12 33 12H32V9C32 8.44772 31.5523 8 31 8H15C14.4477 8 14 8.44772 14 9V23C14 23.5523 14.4477 24 15 24H31C31.5523 24 32 23.5523 32 23ZM30 22V20H27C24.7909 20 23 18.2091 23 16C23 13.7909 24.7909 12 27 12H30V10H16V22H30ZM27 14C25.8954 14 25 14.8954 25 16C25 17.1046 25.8954 18 27 18H32V14H27Z" fill="#2B2D33"/>
</svg>
